<?xml version="1.0" encoding="utf-8"?>
<!-- Generator: Adobe Illustrator 24.1.2, SVG Export Plug-In . SVG Version: 6.00 Build 0)  -->
<svg version="1.1" id="Capa_1" xmlns="http://www.w3.org/2000/svg" xmlns:xlink="http://www.w3.org/1999/xlink" x="0px" y="0px"
	 viewBox="0 0 102.6 95.4" style="enable-background:new 0 0 102.6 95.4;" xml:space="preserve">
<style type="text/css">
	.st0{fill:url(#SVGID_1_);}
	.st1{fill:url(#SVGID_2_);}
	.st2{display:none;}
	.st3{display:inline;fill:#393E46;}
</style>
<g id="SvgjsG2280" transform="matrix(23.56560431708249,0,0,23.56560431708249,-19.418057979749882,-19.394492678830606)">
	<g>
		
			<linearGradient id="SVGID_1_" gradientUnits="userSpaceOnUse" x1="-17.9591" y1="23.8383" x2="-17.0547" y2="23.8383" gradientTransform="matrix(85.8937 0 0 -73.4021 1544.1172 1753.0544)">
			<stop  offset="0" style="stop-color:#006838"/>
			<stop  offset="1" style="stop-color:#96CF24"/>
		</linearGradient>
		<path class="st0" d="M4.4,2.1C4,2.4,3.6,2.6,3.2,2.6C2.8,2.7,2.4,2.7,2.1,2.8C1.7,3,1.5,3.2,1.5,3.6c0,0.2,0.1,0.5,0.3,0.6
			c0,0,0.1,0.1,0.2,0.1c0,0,0,0,0,0C1.8,4.1,1.6,3.2,2.7,3.1C3,3,3.2,3,3.4,2.9c0.2,0,0.5-0.2,0.6-0.2C4,2.7,3.8,3,3,3.2
			C1.9,3.6,2.2,4.5,2.6,4.6c0.1,0,0.3,0,0.4,0c1,0,1.8-0.8,1.8-1.8c0-0.4-0.1-0.7-0.3-1C4.5,2,4.4,2.1,4.4,2.1z"/>
		
			<linearGradient id="SVGID_2_" gradientUnits="userSpaceOnUse" x1="-17.9474" y1="23.792" x2="-17.043" y2="23.792" gradientTransform="matrix(81.8178 0 0 -62.6722 1469.5963 1493.3164)">
			<stop  offset="0" style="stop-color:#006838"/>
			<stop  offset="1" style="stop-color:#96CF24"/>
		</linearGradient>
		<path class="st1" d="M1.2,2.8c0,0.2,0,0.4,0.1,0.6c0-0.2,0.1-0.4,0.2-0.5c0.2-0.3,0.6-0.4,1-0.5c0.4-0.1,0.8-0.1,1.1-0.2
			C3.8,2.2,4,2.1,4.2,1.9c0.1-0.1,0.2-0.3,0.1-0.4c-0.1,0-0.1-0.1-0.2-0.1c0.1,0.2,0,0.5-0.8,0.6C3,2,2.8,2,2.6,2.1
			c-0.1,0-0.1,0-0.2,0c0,0,0.1-0.1,0.6-0.2c1-0.2,0.9-0.7,0.5-0.8C3.3,1,3.2,1,3,1C2,1,1.2,1.8,1.2,2.8z"/>
	</g>
</g>
<g id="SvgjsG2281" transform="matrix(2.4538965400024746,0,0,2.4538965400024746,96.54610345999752,6.233789612034428)" class="st2">
	<path class="st3" d="M-56.7,24.7c-0.2,0-0.3-0.1-0.3-0.3V9.9c0-0.2,0.1-0.3,0.3-0.3h5.8c1.6,0,2.7,0.3,3.6,1
		c1.3,0.9,1.8,2.7,1.2,4.3c-0.3,0.8-0.8,1.2-1.6,1.6c1,0.1,1.7,0.8,2.1,1.3c0.6,0.7,0.8,1.6,0.8,2.6c0,1.3-0.5,2.4-1.5,3.2
		c-1,0.7-2.3,1.1-4,1.1C-50.3,24.7-56.7,24.7-56.7,24.7z M-53.5,15.1h2.4c0.5,0,0.9-0.1,1.1-0.3c0.2-0.2,0.4-0.5,0.4-0.9
		c0-0.4-0.1-0.7-0.4-0.8c-0.2-0.2-0.6-0.3-1-0.3h-2.5V15.1z M-53.5,21.7h2.8c0.7,0,1.3-0.1,1.7-0.4c0.4-0.3,0.6-0.6,0.6-1.1
		c0-0.5-0.2-0.8-0.6-1.1c-0.4-0.3-0.9-0.4-1.6-0.4h-2.9C-53.5,18.7-53.5,21.7-53.5,21.7z M-42.3,24.7V10.2c0-0.6,0.1-0.7,0.3-0.7
		h10.6c0.2,0,0.3,0.1,0.3,0.3v2.7c0,0.2-0.1,0.3-0.3,0.3h-7.1v2.5h4.5c0.2,0,0.3,0.1,0.3,0.3v2.7c0,0.2-0.1,0.3-0.3,0.3h-4.5v2.6
		h7.1c0.2,0,0.3,0.1,0.3,0.3v2.7c0,0.2-0.1,0.3-0.3,0.3H-42C-42.2,24.6-42.3,24.4-42.3,24.7z M-22.3,24.8c-1.2,0-2.3-0.2-3.4-0.7
		c-1.1-0.4-2.1-1-2.9-1.7c-0.1-0.1-0.1-0.2-0.1-0.4l0.8-2.9c0-0.1,0.1-0.2,0.2-0.2c0.1,0,0.2,0,0.3,0.1c1.3,1.2,2.7,2.3,4.5,2.4
		c0.5,0,1,0,1.5-0.1c1.4-0.5,0.8-1.9-0.2-2.3c-0.4-0.1-0.9-0.3-1.5-0.5c-1-0.3-1.8-0.6-2.4-0.8c-0.7-0.3-1.2-0.7-1.7-1.4
		c-0.5-0.6-0.7-1.4-0.7-2.4c0-0.9,0.2-1.8,0.7-2.5c0.5-0.7,1.2-1.3,2-1.6c0.8-0.4,1.8-0.6,2.9-0.6c1,0,2,0.1,2.9,0.5
		c0.9,0.3,1.8,0.7,2.5,1.2c0.1,0.1,0.2,0.2,0.1,0.4l-0.8,2.7c0,0.1-0.1,0.1-0.2,0.2c-0.1,0-0.2,0-0.2,0c-1.1-0.7-2.2-1.5-3.5-1.7
		c-0.8-0.1-2.1-0.1-2.4,0.9c-0.4,1.3,1.5,1.6,2.4,1.9c1,0.3,1.8,0.6,2.4,0.9c0.7,0.3,1.2,0.8,1.7,1.4c0.5,0.6,0.7,1.5,0.7,2.5
		c0,1-0.3,1.8-0.8,2.6c-0.5,0.7-1.2,1.3-2.1,1.6C-20.2,24.6-21.2,24.8-22.3,24.8z M-10.2,24.7c-0.2,0-0.3-0.1-0.3-0.3V13h-3.3
		c-0.2,0-0.3-0.1-0.3-0.3V9.9c0-0.2,0.1-0.3,0.3-0.3h10.4c0.2,0,0.3,0.1,0.3,0.3v2.8c0,0.2-0.1,0.3-0.3,0.3h-3.3v11.4
		c0,0.2-0.1,0.3-0.3,0.3H-10.2z M-0.4,24.7c-0.2,0-0.3-0.1-0.3-0.3V9.9c0-0.2,0.1-0.3,0.3-0.3h3.1c0.2,0,0.3,0.1,0.3,0.3v14.5
		c0,0.2-0.1,0.3-0.3,0.3H-0.4z M5.5,24.7V10.2c0-0.6,0.1-0.7,0.3-0.7h10.6c0.2,0,0.3,0.1,0.3,0.3v2.7c0,0.2-0.1,0.3-0.3,0.3H9.2v2.5
		h4.5c0.2,0,0.3,0.1,0.3,0.3v2.7c0,0.2-0.1,0.3-0.3,0.3H9.2v2.6h7.1c0.2,0,0.3,0.1,0.3,0.3v2.7c0,0.2-0.1,0.3-0.3,0.3H5.8
		C5.6,24.6,5.5,24.4,5.5,24.7L5.5,24.7z"/>
</g>
<g id="SvgjsG2282" transform="matrix(2.0234434333181057,0,0,2.0234434333181057,256.85933940009136,14.651691569635075)" class="st2">
	<path class="st3" d="M-37.5,7.1c2.5,0,4.9,1,6.7,2.8c0.3,0.3,0.3,0.7,0,1c-0.3,0.3-0.7,0.3-1,0c-1.5-1.5-3.5-2.3-5.7-2.3
		c-4.4,0-8,3.6-8,8c0,4.4,3.6,8,8,8c2.1,0,4.2-0.8,5.7-2.3c0.2-0.2,0.1-0.4,0-0.5c-0.1-0.1-0.3-0.1-0.5,0c-1.4,1.4-3.2,2.1-5.2,2.1
		c-4,0-7.3-3.3-7.3-7.3c0-1.9,0.7-3.8,2.1-5.2c0.3-0.3,0.7-0.3,1,0c0.3,0.3,0.3,0.7,0,1c-1.1,1.1-1.7,2.6-1.7,4.1
		c0,3.2,2.6,5.9,5.8,5.9c1.6,0,3-0.6,4.2-1.7c0.7-0.7,1.8-0.7,2.5,0c0.8,0.8,0.7,1.8,0,2.5c-1.8,1.8-4.2,2.8-6.7,2.8
		c-5.2,0-9.4-4.2-9.4-9.4C-46.9,11.3-42.7,7.1-37.5,7.1z M-14.1,7.4c1,0,1.7,0.8,1.8,1.7V18c0,2.1-0.8,4.1-2.3,5.7
		c-1.5,1.5-3.6,2.3-5.6,2.3c-2.1,0-4.1-0.8-5.6-2.3c-1.5-1.5-2.3-3.5-2.3-5.7c0-0.4,0.3-0.7,0.7-0.7c0.4,0,0.7,0.3,0.7,0.7
		c0,1.7,0.7,3.4,1.9,4.6c2.5,2.6,6.7,2.6,9.2,0c1.2-1.2,1.9-2.9,1.9-4.6V9.2c0-0.2-0.1-0.3-0.3-0.3c-0.2,0-0.3,0.1-0.3,0.3V18
		c0,1.6-0.6,3-1.7,4.2c-1.1,1.1-2.6,1.7-4.2,1.7c-1.6,0-3-0.6-4.2-1.7c-1.1-1.1-1.7-2.6-1.7-4.2V8.1c0-0.4,0.3-0.7,0.7-0.7
		c0.4,0,0.7,0.3,0.7,0.7V18c0,1.2,0.5,2.3,1.3,3.1c0.8,0.8,2,1.3,3.1,1.3s2.3-0.5,3.1-1.3c0.8-0.8,1.3-2,1.3-3.1V9.1
		C-15.9,8.2-15.1,7.4-14.1,7.4z M-9.7,7.4h8.8c3,0,5.4,2.5,5.4,5.5s-2.5,5.5-5.5,5.5H-5c-1,0-1.9,0.8-1.9,1.9v4.7
		c0,0.4-0.3,0.7-0.7,0.7c-0.4,0-0.7-0.3-0.7-0.7v-4.7c0-1.9,1.5-3.4,3.4-3.4h4.1c2.2,0,4-1.8,4-4s-1.8-4-4-4h-8v4
		c0,0.4-0.3,0.7-0.7,0.7c-0.4,0-0.7-0.3-0.7-0.7V8.1C-10.4,7.7-10.1,7.4-9.7,7.4z M-0.9,9.5c1.9,0,3.4,1.5,3.4,3.4s-1.5,3.4-3.4,3.4
		h-4c-2.2,0-4,1.8-4,4v4.7c0,0.4-0.3,0.7-0.7,0.7c-0.4,0-0.7-0.3-0.7-0.7v-4.7c0-3,2.4-5.5,5.5-5.5h4.1c1,0,1.9-0.8,1.9-1.9
		c0-1.1-0.8-1.9-1.9-1.9c-0.4,0-0.7-0.3-0.7-0.7C-1.6,9.8-1.3,9.5-0.9,9.5z"/>
</g>
</svg>
