<?xml version="1.0" encoding="utf-8"?>
<!-- Generator: Adobe Illustrator 24.1.2, SVG Export Plug-In . SVG Version: 6.00 Build 0)  -->
<svg version="1.1" id="Capa_1" xmlns="http://www.w3.org/2000/svg" xmlns:xlink="http://www.w3.org/1999/xlink" x="0px" y="0px"
	 viewBox="0 0 264 280" style="enable-background:new 0 0 264 280;" xml:space="preserve">
<style type="text/css">
	.st0{fill-rule:evenodd;clip-rule:evenodd;fill:#E6E6E6;}
	.st1{filter:url(#Adobe_OpacityMaskFilter);}
	.st2{fill-rule:evenodd;clip-rule:evenodd;fill:#FFFFFF;}
	.st3{mask:url(#react-mask-4_1_);}
	.st4{fill-rule:evenodd;clip-rule:evenodd;fill:#68B02B;}
	.st5{filter:url(#Adobe_OpacityMaskFilter_1_);}
	.st6{mask:url(#react-mask-5_1_);}
	.st7{fill-rule:evenodd;clip-rule:evenodd;fill:#D0C6AC;}
	.st8{filter:url(#Adobe_OpacityMaskFilter_2_);}
	.st9{mask:url(#react-mask-6_1_);}
	.st10{fill-rule:evenodd;clip-rule:evenodd;fill:#614335;}
	.st11{filter:url(#Adobe_OpacityMaskFilter_3_);}
	.st12{mask:url(#react-mask-6_2_);fill-rule:evenodd;clip-rule:evenodd;fill-opacity:0.1;}
	.st13{filter:url(#Adobe_OpacityMaskFilter_4_);}
	.st14{mask:url(#react-mask-296_1_);}
	.st15{fill-rule:evenodd;clip-rule:evenodd;fill:#262E33;}
	.st16{fill-rule:evenodd;clip-rule:evenodd;fill:#3A4C5A;}
	.st17{fill-rule:evenodd;clip-rule:evenodd;fill:#2F4351;}
	.st18{fill-rule:evenodd;clip-rule:evenodd;fill:#F2F2F2;}
	.st19{fill-rule:evenodd;clip-rule:evenodd;fill-opacity:0.7;}
	.st20{filter:url(#Adobe_OpacityMaskFilter_5_);}
	.st21{mask:url(#react-mask-298_1_);fill-rule:evenodd;clip-rule:evenodd;fill:#FFFFFF;}
	.st22{filter:url(#Adobe_OpacityMaskFilter_6_);}
	.st23{mask:url(#react-mask-298_2_);}
	.st24{fill-rule:evenodd;clip-rule:evenodd;fill:#FF4F6D;}
	.st25{fill-rule:evenodd;clip-rule:evenodd;fill-opacity:0.16;}
	.st26{fill-rule:evenodd;clip-rule:evenodd;fill-opacity:0.6;}
	.st27{filter:url(#Adobe_OpacityMaskFilter_7_);}
	.st28{mask:url(#react-mask-300_1_);}
	.st29{fill-rule:evenodd;clip-rule:evenodd;fill:#3B6BAD;}
	.st30{filter:url(#Adobe_OpacityMaskFilter_8_);}
	.st31{mask:url(#react-mask-301_1_);}
	.st32{fill-rule:evenodd;clip-rule:evenodd;fill:#25557C;}
	.st33{filter:url(#Adobe_OpacityMaskFilter_9_);}
	.st34{mask:url(#react-mask-301_2_);fill-rule:evenodd;clip-rule:evenodd;fill:#FFFFFF;fill-opacity:0.5;}
	.st35{filter:url(#Adobe_OpacityMaskFilter_10_);}
	
		.st36{opacity:0.9;mask:url(#react-mask-301_3_);fill-rule:evenodd;clip-rule:evenodd;fill-opacity:0.16;enable-background:new    ;}
	.st37{fill-rule:evenodd;clip-rule:evenodd;}
	.st38{fill-rule:evenodd;clip-rule:evenodd;fill:#252C2F;}
</style>
<desc>Created with getavataaars.com</desc>
<g id="Avataaar_1_">
	<g id="Avataaar_x2F_Circle" transform="translate(-825.000000, -1100.000000)">
		<g transform="translate(825.000000, 1100.000000)">
			<g id="Circle" transform="translate(12.000000, 40.000000)">
				<g id="Circle-Background">
					<circle id="react-path-1_1_" class="st0" cx="120" cy="120" r="120"/>
				</g>
				<defs>
					<filter id="Adobe_OpacityMaskFilter" filterUnits="userSpaceOnUse" x="0" y="0" width="240" height="240">
						<feColorMatrix  type="matrix" values="1 0 0 0 0  0 1 0 0 0  0 0 1 0 0  0 0 0 1 0"/>
					</filter>
				</defs>
				<mask maskUnits="userSpaceOnUse" x="0" y="0" width="240" height="240" id="react-mask-4_1_">
					<g class="st1">
						<circle id="react-path-1_2_" class="st2" cx="120" cy="120" r="120"/>
					</g>
				</mask>
				<g id="Color_x2F_Palette_x2F_Blue-01" class="st3">
					<rect id="_xD83D__xDD8D_Color" class="st4" width="240" height="240"/>
				</g>
			</g>
			<g id="Mask">
			</g>
			<defs>
				<filter id="Adobe_OpacityMaskFilter_1_" filterUnits="userSpaceOnUse" x="-1" y="0" width="297" height="316">
					<feColorMatrix  type="matrix" values="1 0 0 0 0  0 1 0 0 0  0 0 1 0 0  0 0 0 1 0"/>
				</filter>
			</defs>
			<mask maskUnits="userSpaceOnUse" x="-1" y="0" width="297" height="316" id="react-mask-5_1_">
				<g class="st5">
					<path id="react-path-2_1_" class="st2" d="M12,160c0,66.3,53.7,120,120,120s120-53.7,120-120h12V0H0v160H12z"/>
				</g>
			</mask>
			<g id="Avataaar" class="st6">
				<g id="Body" transform="translate(32.000000, 36.000000)">
					<g>
						<path id="react-path-3_1_" class="st7" d="M124,144.6V163h4l0,0c39.8,0,72,32.2,72,72v9H0v-9c0-39.8,32.2-72,72-72l0,0h4
							v-18.4c-17.2-8.2-29.6-24.9-31.7-44.7C38.5,99.1,34,94.1,34,88V74c0-5.9,4.3-10.9,10-11.8V56l0,0c0-30.9,25.1-56,56-56l0,0
							l0,0c30.9,0,56,25.1,56,56v6.2c5.7,1,10,5.9,10,11.8v14c0,6.1-4.5,11.1-10.3,11.9C153.6,119.7,141.2,136.4,124,144.6z"/>
					</g>
					<defs>
						<filter id="Adobe_OpacityMaskFilter_2_" filterUnits="userSpaceOnUse" x="0" y="0" width="264" height="280">
							<feColorMatrix  type="matrix" values="1 0 0 0 0  0 1 0 0 0  0 0 1 0 0  0 0 0 1 0"/>
						</filter>
					</defs>
					<mask maskUnits="userSpaceOnUse" x="0" y="0" width="264" height="280" id="react-mask-6_1_">
						<g class="st8">
							<path id="react-path-3_2_" class="st2" d="M124,144.6V163h4l0,0c39.8,0,72,32.2,72,72v9H0v-9c0-39.8,32.2-72,72-72l0,0h4
								v-18.4c-17.2-8.2-29.6-24.9-31.7-44.7C38.5,99.1,34,94.1,34,88V74c0-5.9,4.3-10.9,10-11.8V56l0,0c0-30.9,25.1-56,56-56l0,0
								l0,0c30.9,0,56,25.1,56,56v6.2c5.7,1,10,5.9,10,11.8v14c0,6.1-4.5,11.1-10.3,11.9C153.6,119.7,141.2,136.4,124,144.6z"/>
						</g>
					</mask>
					<g id="Skin_x2F__xD83D__xDC76__xD83C__xDFFD_-03-Brown" class="st9">
						<g id="Color" transform="translate(0.000000, 0.000000)">
							<rect class="st10" width="264" height="280"/>
						</g>
					</g>
					<defs>
						<filter id="Adobe_OpacityMaskFilter_3_" filterUnits="userSpaceOnUse" x="44" y="79" width="112" height="79">
							<feColorMatrix  type="matrix" values="1 0 0 0 0  0 1 0 0 0  0 0 1 0 0  0 0 0 1 0"/>
						</filter>
					</defs>
					<mask maskUnits="userSpaceOnUse" x="44" y="79" width="112" height="79" id="react-mask-6_2_">
						<g class="st11">
							<path id="react-path-3_3_" class="st2" d="M124,144.6V163h4l0,0c39.8,0,72,32.2,72,72v9H0v-9c0-39.8,32.2-72,72-72l0,0h4
								v-18.4c-17.2-8.2-29.6-24.9-31.7-44.7C38.5,99.1,34,94.1,34,88V74c0-5.9,4.3-10.9,10-11.8V56l0,0c0-30.9,25.1-56,56-56l0,0
								l0,0c30.9,0,56,25.1,56,56v6.2c5.7,1,10,5.9,10,11.8v14c0,6.1-4.5,11.1-10.3,11.9C153.6,119.7,141.2,136.4,124,144.6z"/>
						</g>
					</mask>
					<path id="Neck-Shadow" class="st12" d="M156,79v23c0,30.9-25.1,56-56,56s-56-25.1-56-56V79v15c0,30.9,25.1,56,56,56
						s56-25.1,56-56V79z"/>
				</g>
				<g id="Clothing_x2F_Blazer-_x2B_-Sweater" transform="translate(0.000000, 170.000000)">
					<g id="Clothes">
						<path id="react-path-295_1_" class="st0" d="M105.2,29.1H104l0,0c-39.8,0-72,32.2-72,72v8.9h200v-8.9c0-39.8-32.2-72-72-72
							l0,0h-1.2c0.1,1,0.2,2,0.2,3c0,13.8-12.1,25-27,25s-27-11.2-27-25C105,31,105.1,30,105.2,29.1z"/>
					</g>
					<defs>
						<filter id="Adobe_OpacityMaskFilter_4_" filterUnits="userSpaceOnUse" x="0" y="0" width="264" height="110">
							<feColorMatrix  type="matrix" values="1 0 0 0 0  0 1 0 0 0  0 0 1 0 0  0 0 0 1 0"/>
						</filter>
					</defs>
					<mask maskUnits="userSpaceOnUse" x="0" y="0" width="264" height="110" id="react-mask-296_1_">
						<g class="st13">
							<path id="react-path-295_2_" class="st2" d="M105.2,29.1H104l0,0c-39.8,0-72,32.2-72,72v8.9h200v-8.9c0-39.8-32.2-72-72-72
								l0,0h-1.2c0.1,1,0.2,2,0.2,3c0,13.8-12.1,25-27,25s-27-11.2-27-25C105,31,105.1,30,105.2,29.1z"/>
						</g>
					</mask>
					<g id="Color_x2F_Palette_x2F_Black" class="st14">
						<rect id="_xD83D__xDD8D_Color_1_" class="st15" width="264" height="110"/>
					</g>
					<g id="Blazer" transform="translate(32.000000, 28.000000)">
						<path id="Saco" class="st16" d="M68.8,1.1C30.5,2.8,0,34.4,0,73.1V82h69.4C66,69.9,64,55.7,64,40.5
							C64,26.2,65.7,12.7,68.8,1.1z M131.6,82H200v-8.9c0-38.3-30-69.7-67.8-71.9c3,11.6,4.8,25,4.8,39.3
							C137,55.7,135,69.9,131.6,82z"/>
						<path id="Pocket-hanky" class="st0" d="M149,58l9.6-7.2l0,0c1.4-1.1,3.4-1.1,4.9,0L170,56L149,58z"/>
						<path id="Wing" class="st17" d="M69,0c-4,19.3-2.3,46.7,5,82H58L44,46l6-9l-6-6L63,1C65,0.4,67,0,69,0z"/>
						<path id="Wing_1_" class="st17" d="M131,0c4,19.3,2.3,46.7-5,82h16l14-36l-6-9l6-6L137,1C135,0.4,133,0,131,0z"/>
					</g>
					<path id="Collar" class="st18" d="M156,21.5c6.8,4.6,11,11.1,11,18.3c0,7.4-4.4,14.1-11.5,18.7l-5.9-4.7l-4.6,0.3l1-3.2
						l-0.1-0.1c6.1-3.1,10.1-8.3,10.1-14.1V21.5z M108,21.5c-6.8,4.6-11,11.1-11,18.3c0,7.4,4.4,14.1,11.5,18.7l5.9-4.7l4.6,0.3
						l-1-3.2l0.1-0.1C112,47.9,108,42.7,108,36.9V21.5z"/>
				</g>
				<g id="Face" transform="translate(76.000000, 82.000000)">
					<g id="Mouth_x2F_Smile" transform="translate(2.000000, 52.000000)">
						<g id="Mouth">
							<path id="react-path-297_1_" class="st19" d="M35.1,15.1C36.2,24.6,44.2,32,54,32c9.8,0,17.9-7.4,18.9-17
								c0.1-0.8-0.8-2-1.8-2c-14.9,0-26.3,0-34,0C36,13,35,14.2,35.1,15.1z"/>
						</g>
						<defs>
							<filter id="Adobe_OpacityMaskFilter_5_" filterUnits="userSpaceOnUse" x="39" y="2" width="31" height="16">
								<feColorMatrix  type="matrix" values="1 0 0 0 0  0 1 0 0 0  0 0 1 0 0  0 0 0 1 0"/>
							</filter>
						</defs>
						<mask maskUnits="userSpaceOnUse" x="39" y="2" width="31" height="16" id="react-mask-298_1_">
							<g class="st20">
								<path id="react-path-297_2_" class="st2" d="M35.1,15.1C36.2,24.6,44.2,32,54,32c9.8,0,17.9-7.4,18.9-17
									c0.1-0.8-0.8-2-1.8-2c-14.9,0-26.3,0-34,0C36,13,35,14.2,35.1,15.1z"/>
							</g>
						</mask>
						<path id="Teeth" class="st21" d="M44,2h21c2.8,0,5,2.2,5,5v6c0,2.8-2.2,5-5,5H44c-2.8,0-5-2.2-5-5V7C39,4.2,41.2,2,44,2z"/>
						<defs>
							<filter id="Adobe_OpacityMaskFilter_6_" filterUnits="userSpaceOnUse" x="38" y="24" width="32" height="22">
								<feColorMatrix  type="matrix" values="1 0 0 0 0  0 1 0 0 0  0 0 1 0 0  0 0 0 1 0"/>
							</filter>
						</defs>
						<mask maskUnits="userSpaceOnUse" x="38" y="24" width="32" height="22" id="react-mask-298_2_">
							<g class="st22">
								<path id="react-path-297_3_" class="st2" d="M35.1,15.1C36.2,24.6,44.2,32,54,32c9.8,0,17.9-7.4,18.9-17
									c0.1-0.8-0.8-2-1.8-2c-14.9,0-26.3,0-34,0C36,13,35,14.2,35.1,15.1z"/>
							</g>
						</mask>
						<g id="Tongue" class="st23">
							<g transform="translate(38.000000, 24.000000)">
								<circle class="st24" cx="11" cy="11" r="11"/>
								<circle class="st24" cx="21" cy="11" r="11"/>
							</g>
						</g>
					</g>
					<g id="Nose_x2F_Default" transform="translate(28.000000, 40.000000)">
						<path id="Nose" class="st25" d="M16,8c0,4.4,5.4,8,12,8l0,0c6.6,0,12-3.6,12-8"/>
					</g>
					<g id="Eyes_x2F_Wink-_xD83D__xDE09_" transform="translate(0.000000, 8.000000)">
						<circle id="Eye" class="st26" cx="30" cy="22" r="6"/>
						<path id="Winky-Wink" class="st26" d="M70.6,25c1.6-3.9,5.5-6.9,10.4-7.2c4.8-0.3,9.1,2,11.2,5.6c0.6,1.1-0.1,2.1-0.9,1.4
							c-2.6-1.9-6.2-3-10-2.7c-3.7,0.3-7,1.7-9.3,3.9C71.1,26.8,70.1,26.1,70.6,25z"/>
					</g>
					<g id="Eyebrow_x2F_Natural_x2F_Default-Natural">
						<path id="Eyebrow" class="st26" d="M26.5,6.1c-5.8,0.3-15.2,4.5-15,10.3c0,0.2,0.3,0.3,0.4,0.1c2.8-3,22.3-5.9,29.2-4.4
							c0.6,0.1,1.1-0.5,0.7-0.9C38.5,7.5,31.7,5.9,26.5,6.1"/>
						<path id="Eyebrow_1_" class="st26" d="M86.5,6.1c5.8,0.3,15.2,4.5,15,10.3c0,0.2-0.3,0.3-0.4,0.1c-2.8-3-22.3-5.9-29.2-4.4
							c-0.6,0.1-1.1-0.5-0.7-0.9C74.5,7.5,81.3,5.9,86.5,6.1"/>
					</g>
				</g>
				<g id="Top">
					<g id="Mask_1_">
					</g>
					<defs>
						<filter id="Adobe_OpacityMaskFilter_7_" filterUnits="userSpaceOnUse" x="-1" y="0" width="264" height="280">
							<feColorMatrix  type="matrix" values="1 0 0 0 0  0 1 0 0 0  0 0 1 0 0  0 0 0 1 0"/>
						</filter>
					</defs>
					<mask maskUnits="userSpaceOnUse" x="-1" y="0" width="264" height="280" id="react-mask-300_1_">
						<g class="st27">
							<rect id="react-path-302_1_" class="st2" width="264" height="280"/>
						</g>
					</mask>
					<g id="Top_x2F_Accesories_x2F_Hijab" class="st28">
						<g transform="translate(-1.000000, 0.000000)">
							<g id="Hijab-Mask">
								<path id="react-path-303_1_" class="st29" d="M66,77.1C71.7,45.2,99.5,21,133,21l0,0l0,0c37.6,0,68,30.4,68,68v30.8
									c0.9,9.8,1.7,16.7,2.5,20.6c1.4,7.1,5.7,4.8,5.7,14.9s-4.3,13.5-4.3,22.5c0,9,15.4,16.1,15.4,27.5
									c0,11.4-7.1,65.2-77.6,65.2c-15.1,0-27.9-4.3-38.5-12.9c0.7,6.5,1.3,14,1.9,22.4H59c0.9-23.8-7.3-37.1-7.3-63.6
									s13.6-65,13.3-74.4c0-0.6,0-1.3,0.1-2.1c0-1-0.1-1.9-0.1-2.9V89l0,0c0-4,0.3-7.9,1-11.7C66,77.2,66,77.1,66,77.1
									C66,77,66,77,66,77.1z M132.5,53L132.5,53C102.4,53,78,77.4,78,107.5l0,0v23c0,30.1,24.4,54.5,54.5,54.5h1
									c30.1,0,54.5-24.4,54.5-54.5v-23c0-30.1-24.4-54.5-54.5-54.5l0,0H132.5z"/>
							</g>
							<defs>
								<filter id="Adobe_OpacityMaskFilter_8_" filterUnits="userSpaceOnUse" x="0" y="0" width="264" height="280">
									<feColorMatrix  type="matrix" values="1 0 0 0 0  0 1 0 0 0  0 0 1 0 0  0 0 0 1 0"/>
								</filter>
							</defs>
							<mask maskUnits="userSpaceOnUse" x="0" y="0" width="264" height="280" id="react-mask-301_1_">
								<g class="st30">
									<path id="react-path-303_2_" class="st2" d="M66,77.1C71.7,45.2,99.5,21,133,21l0,0l0,0c37.6,0,68,30.4,68,68v30.8
										c0.9,9.8,1.7,16.7,2.5,20.6c1.4,7.1,5.7,4.8,5.7,14.9s-4.3,13.5-4.3,22.5c0,9,15.4,16.1,15.4,27.5
										c0,11.4-7.1,65.2-77.6,65.2c-15.1,0-27.9-4.3-38.5-12.9c0.7,6.5,1.3,14,1.9,22.4H59c0.9-23.8-7.3-37.1-7.3-63.6
										s13.6-65,13.3-74.4c0-0.6,0-1.3,0.1-2.1c0-1-0.1-1.9-0.1-2.9V89l0,0c0-4,0.3-7.9,1-11.7C66,77.2,66,77.1,66,77.1
										C66,77,66,77,66,77.1z M132.5,53L132.5,53C102.4,53,78,77.4,78,107.5l0,0v23c0,30.1,24.4,54.5,54.5,54.5h1
										c30.1,0,54.5-24.4,54.5-54.5v-23c0-30.1-24.4-54.5-54.5-54.5l0,0H132.5z"/>
								</g>
							</mask>
							<g id="Color_x2F_Palette_x2F_Gray-01" class="st31">
								<rect id="_xD83D__xDD8D_Color_2_" class="st32" width="264" height="280"/>
							</g>
							<defs>
								<filter id="Adobe_OpacityMaskFilter_9_" filterUnits="userSpaceOnUse" x="71" y="32" width="124" height="73">
									<feColorMatrix  type="matrix" values="1 0 0 0 0  0 1 0 0 0  0 0 1 0 0  0 0 0 1 0"/>
								</filter>
							</defs>
							<mask maskUnits="userSpaceOnUse" x="71" y="32" width="124" height="73" id="react-mask-301_2_">
								<g class="st33">
									<path id="react-path-303_3_" class="st2" d="M66,77.1C71.7,45.2,99.5,21,133,21l0,0l0,0c37.6,0,68,30.4,68,68v30.8
										c0.9,9.8,1.7,16.7,2.5,20.6c1.4,7.1,5.7,4.8,5.7,14.9s-4.3,13.5-4.3,22.5c0,9,15.4,16.1,15.4,27.5
										c0,11.4-7.1,65.2-77.6,65.2c-15.1,0-27.9-4.3-38.5-12.9c0.7,6.5,1.3,14,1.9,22.4H59c0.9-23.8-7.3-37.1-7.3-63.6
										s13.6-65,13.3-74.4c0-0.6,0-1.3,0.1-2.1c0-1-0.1-1.9-0.1-2.9V89l0,0c0-4,0.3-7.9,1-11.7C66,77.2,66,77.1,66,77.1
										C66,77,66,77,66,77.1z M132.5,53L132.5,53C102.4,53,78,77.4,78,107.5l0,0v23c0,30.1,24.4,54.5,54.5,54.5h1
										c30.1,0,54.5-24.4,54.5-54.5v-23c0-30.1-24.4-54.5-54.5-54.5l0,0H132.5z"/>
								</g>
							</mask>
							<path id="Band" class="st34" d="M72.1,105c-0.7-3.7-1.1-7.5-1.1-11.5c0-34,27.8-61.5,62-61.5s62,27.5,62,61.5
								c0,3.9-0.4,7.7-1.1,11.5c-1.6-32.3-28.3-58-60.9-58S73.7,72.7,72.1,105z"/>
							<defs>
								<filter id="Adobe_OpacityMaskFilter_10_" filterUnits="userSpaceOnUse" x="77" y="104.7" width="123" height="145.1">
									<feColorMatrix  type="matrix" values="1 0 0 0 0  0 1 0 0 0  0 0 1 0 0  0 0 0 1 0"/>
								</filter>
							</defs>
							<mask maskUnits="userSpaceOnUse" x="77" y="104.7" width="123" height="145.1" id="react-mask-301_3_">
								<g class="st35">
									<path id="react-path-303_4_" class="st2" d="M66,77.1C71.7,45.2,99.5,21,133,21l0,0l0,0c37.6,0,68,30.4,68,68v30.8
										c0.9,9.8,1.7,16.7,2.5,20.6c1.4,7.1,5.7,4.8,5.7,14.9s-4.3,13.5-4.3,22.5c0,9,15.4,16.1,15.4,27.5
										c0,11.4-7.1,65.2-77.6,65.2c-15.1,0-27.9-4.3-38.5-12.9c0.7,6.5,1.3,14,1.9,22.4H59c0.9-23.8-7.3-37.1-7.3-63.6
										s13.6-65,13.3-74.4c0-0.6,0-1.3,0.1-2.1c0-1-0.1-1.9-0.1-2.9V89l0,0c0-4,0.3-7.9,1-11.7C66,77.2,66,77.1,66,77.1
										C66,77,66,77,66,77.1z M132.5,53L132.5,53C102.4,53,78,77.4,78,107.5l0,0v23c0,30.1,24.4,54.5,54.5,54.5h1
										c30.1,0,54.5-24.4,54.5-54.5v-23c0-30.1-24.4-54.5-54.5-54.5l0,0H132.5z"/>
								</g>
							</mask>
							<path id="Shadows" class="st36" d="M187.9,104.7c0.7,3.5,1.1,7.1,1.1,10.8v23c0,30.1-24.4,54.5-54.5,54.5h-3
								c-30.1,0-54.5-24.4-54.5-54.5v-23l0,0c0-3.7,0.4-7.3,1.1-10.8c0,0.9-0.1,1.9-0.1,2.8l0,0v23c0,30.1,24.4,54.5,54.5,54.5h1
								c30.1,0,54.5-24.4,54.5-54.5l0,0v-23C188,106.6,188,105.6,187.9,104.7z M114.2,207c6.5,5,21.5,6.7,38.2,3.8
								c16.7-3,30.3-9.7,34.6-16.6c0.1,0.3,0.1,0.5,0.2,0.8c1.7,9.7-13.2,20.4-33.4,24c-20.1,3.6-37.9-1.4-39.6-11.1
								C114.2,207.5,114.2,207.3,114.2,207z M126,235.9c8.2,5.7,24.4,5.9,41.1-0.1c16.7-6.1,28.9-16.7,31.6-26.3
								c0.1,0.3,0.3,0.6,0.4,1c4.5,12.4-8.1,28.4-28.2,35.7c-20.1,7.3-40,3.1-44.5-9.3C126.2,236.6,126.1,236.3,126,235.9L126,235.9
								z"/>
							<g id="Top_x2F__x5F_Resources_x2F_Round" transform="translate(62.000000, 85.000000)">
								<g id="Lennon-Glasses">
									<g>
										<path id="react-path-304" class="st37" d="M80.5,16.4C84.4,8.5,92.6,3,102,3c8.9,0,16.7,4.9,20.8,12.1
											c0.2-0.1,0.4-0.1,0.7-0.1h8c1.4,0,2.5,1.1,2.5,2.5s-1.1,2.5-2.5,2.5H125c0.7,2.2,1,4.6,1,7c0,13.3-10.7,24-24,24
											S78,40.3,78,27c0-1.4,0.1-2.8,0.4-4.2c-0.1-4.4-3.4-7.8-7.5-7.8c-3.7,0-6.9,2.9-7.4,6.8c0.4,1.7,0.6,3.4,0.6,5.2
											c0,13.3-10.7,24-24,24S16,40.3,16,27c0-2.4,0.4-4.8,1-7h-6.5C9.1,20,8,18.9,8,17.5S9.1,15,10.5,15l0,0h8
											c0.2,0,0.4,0,0.7,0.1C23.3,7.9,31.1,3,40,3c9.4,0,17.5,5.3,21.4,13.2c2.1-3.1,5.5-5.2,9.4-5.2
											C74.9,11,78.4,13.1,80.5,16.4z M40,47c11,0,20-9,20-20S51,7,40,7s-20,9-20,20S29,47,40,47z M102,47c11,0,20-9,20-20
											s-9-20-20-20s-20,9-20,20S91,47,102,47z"/>
									</g>
									<g>
										<path id="react-path-304_1_" class="st38" d="M80.5,16.4C84.4,8.5,92.6,3,102,3c8.9,0,16.7,4.9,20.8,12.1
											c0.2-0.1,0.4-0.1,0.7-0.1h8c1.4,0,2.5,1.1,2.5,2.5s-1.1,2.5-2.5,2.5H125c0.7,2.2,1,4.6,1,7c0,13.3-10.7,24-24,24
											S78,40.3,78,27c0-1.4,0.1-2.8,0.4-4.2c-0.1-4.4-3.4-7.8-7.5-7.8c-3.7,0-6.9,2.9-7.4,6.8c0.4,1.7,0.6,3.4,0.6,5.2
											c0,13.3-10.7,24-24,24S16,40.3,16,27c0-2.4,0.4-4.8,1-7h-6.5C9.1,20,8,18.9,8,17.5S9.1,15,10.5,15l0,0h8
											c0.2,0,0.4,0,0.7,0.1C23.3,7.9,31.1,3,40,3c9.4,0,17.5,5.3,21.4,13.2c2.1-3.1,5.5-5.2,9.4-5.2
											C74.9,11,78.4,13.1,80.5,16.4z M40,47c11,0,20-9,20-20S51,7,40,7s-20,9-20,20S29,47,40,47z M102,47c11,0,20-9,20-20
											s-9-20-20-20s-20,9-20,20S91,47,102,47z"/>
									</g>
								</g>
							</g>
						</g>
					</g>
				</g>
			</g>
		</g>
	</g>
</g>
</svg>
