<?xml version="1.0" encoding="utf-8"?>
<!-- Generator: Adobe Illustrator 24.1.2, SVG Export Plug-In . SVG Version: 6.00 Build 0)  -->
<svg version="1.1" id="Capa_1" xmlns="http://www.w3.org/2000/svg" xmlns:xlink="http://www.w3.org/1999/xlink" x="0px" y="0px"
	 viewBox="0 0 264 280" style="enable-background:new 0 0 264 280;" xml:space="preserve">
<style type="text/css">
	.st0{fill-rule:evenodd;clip-rule:evenodd;fill:#E6E6E6;}
	.st1{filter:url(#Adobe_OpacityMaskFilter);}
	.st2{fill-rule:evenodd;clip-rule:evenodd;fill:#FFFFFF;}
	.st3{mask:url(#react-mask-4_1_);}
	.st4{fill-rule:evenodd;clip-rule:evenodd;fill:#68B02B;stroke:#68B02B;stroke-miterlimit:10;}
	.st5{filter:url(#Adobe_OpacityMaskFilter_1_);}
	.st6{mask:url(#react-mask-5_1_);}
	.st7{fill-rule:evenodd;clip-rule:evenodd;fill:#D0C6AC;}
	.st8{filter:url(#Adobe_OpacityMaskFilter_2_);}
	.st9{mask:url(#react-mask-6_1_);}
	.st10{fill-rule:evenodd;clip-rule:evenodd;fill:#FFDBB4;}
	.st11{filter:url(#Adobe_OpacityMaskFilter_3_);}
	.st12{mask:url(#react-mask-6_2_);fill-rule:evenodd;clip-rule:evenodd;fill-opacity:0.1;}
	.st13{fill-rule:evenodd;clip-rule:evenodd;fill:#B7C1DB;}
	.st14{filter:url(#Adobe_OpacityMaskFilter_4_);}
	.st15{mask:url(#react-mask-346_1_);}
	.st16{fill-rule:evenodd;clip-rule:evenodd;fill:#B1E2FF;}
	.st17{fill-rule:evenodd;clip-rule:evenodd;fill:#F4F4F4;}
	.st18{fill-rule:evenodd;clip-rule:evenodd;fill-opacity:0.7;}
	.st19{fill-rule:evenodd;clip-rule:evenodd;fill-opacity:0.16;}
	.st20{fill-opacity:0.6;}
	.st21{filter:url(#Adobe_OpacityMaskFilter_5_);}
	.st22{mask:url(#react-mask-349_1_);}
	.st23{fill-rule:evenodd;clip-rule:evenodd;fill:#28354B;}
	.st24{filter:url(#Adobe_OpacityMaskFilter_6_);}
	.st25{mask:url(#react-mask-352_1_);}
	.st26{fill-rule:evenodd;clip-rule:evenodd;fill:#D6B370;}
	.st27{filter:url(#Adobe_OpacityMaskFilter_7_);}
	.st28{mask:url(#react-mask-348_1_);}
	.st29{fill-rule:evenodd;clip-rule:evenodd;}
	.st30{fill-rule:evenodd;clip-rule:evenodd;fill:#252C2F;}
</style>
<desc>Created with getavataaars.com</desc>
<g id="Avataaar_1_">
	<g id="Avataaar_x2F_Circle" transform="translate(-825.000000, -1100.000000)">
		<g transform="translate(825.000000, 1100.000000)">
			<g id="Circle" transform="translate(12.000000, 40.000000)">
				<g id="Circle-Background">
					<circle id="react-path-1_1_" class="st0" cx="120" cy="120" r="120"/>
				</g>
				<defs>
					<filter id="Adobe_OpacityMaskFilter" filterUnits="userSpaceOnUse" x="-0.5" y="-0.5" width="241" height="241">
						<feColorMatrix  type="matrix" values="1 0 0 0 0  0 1 0 0 0  0 0 1 0 0  0 0 0 1 0"/>
					</filter>
				</defs>
				<mask maskUnits="userSpaceOnUse" x="-0.5" y="-0.5" width="241" height="241" id="react-mask-4_1_">
					<g class="st1">
						<circle id="react-path-1_2_" class="st2" cx="120" cy="120" r="120"/>
					</g>
				</mask>
				<g id="Color_x2F_Palette_x2F_Blue-01" class="st3">
					<rect id="_xD83D__xDD8D_Color" class="st4" width="240" height="240"/>
				</g>
			</g>
			<g id="Mask">
			</g>
			<defs>
				<filter id="Adobe_OpacityMaskFilter_1_" filterUnits="userSpaceOnUse" x="-1" y="0" width="297" height="316">
					<feColorMatrix  type="matrix" values="1 0 0 0 0  0 1 0 0 0  0 0 1 0 0  0 0 0 1 0"/>
				</filter>
			</defs>
			<mask maskUnits="userSpaceOnUse" x="-1" y="0" width="297" height="316" id="react-mask-5_1_">
				<g class="st5">
					<path id="react-path-2_1_" class="st2" d="M12,160c0,66.3,53.7,120,120,120s120-53.7,120-120h12V0H0v160H12z"/>
				</g>
			</mask>
			<g id="Avataaar" class="st6">
				<g id="Body" transform="translate(32.000000, 36.000000)">
					<g>
						<path id="react-path-3_1_" class="st7" d="M124,144.6V163h4l0,0c39.8,0,72,32.2,72,72v9H0v-9c0-39.8,32.2-72,72-72l0,0h4
							v-18.4c-17.2-8.2-29.6-24.9-31.7-44.7C38.5,99.1,34,94.1,34,88V74c0-5.9,4.3-10.9,10-11.8V56l0,0c0-30.9,25.1-56,56-56l0,0
							l0,0c30.9,0,56,25.1,56,56v6.2c5.7,1,10,5.9,10,11.8v14c0,6.1-4.5,11.1-10.3,11.9C153.6,119.7,141.2,136.4,124,144.6z"/>
					</g>
					<defs>
						<filter id="Adobe_OpacityMaskFilter_2_" filterUnits="userSpaceOnUse" x="0" y="0" width="264" height="280">
							<feColorMatrix  type="matrix" values="1 0 0 0 0  0 1 0 0 0  0 0 1 0 0  0 0 0 1 0"/>
						</filter>
					</defs>
					<mask maskUnits="userSpaceOnUse" x="0" y="0" width="264" height="280" id="react-mask-6_1_">
						<g class="st8">
							<path id="react-path-3_2_" class="st2" d="M124,144.6V163h4l0,0c39.8,0,72,32.2,72,72v9H0v-9c0-39.8,32.2-72,72-72l0,0h4
								v-18.4c-17.2-8.2-29.6-24.9-31.7-44.7C38.5,99.1,34,94.1,34,88V74c0-5.9,4.3-10.9,10-11.8V56l0,0c0-30.9,25.1-56,56-56l0,0
								l0,0c30.9,0,56,25.1,56,56v6.2c5.7,1,10,5.9,10,11.8v14c0,6.1-4.5,11.1-10.3,11.9C153.6,119.7,141.2,136.4,124,144.6z"/>
						</g>
					</mask>
					<g id="Skin_x2F__xD83D__xDC76__xD83C__xDFFD_-03-Brown" class="st9">
						<g id="Color" transform="translate(0.000000, 0.000000)">
							<rect class="st10" width="264" height="280"/>
						</g>
					</g>
					<defs>
						<filter id="Adobe_OpacityMaskFilter_3_" filterUnits="userSpaceOnUse" x="44" y="79" width="112" height="79">
							<feColorMatrix  type="matrix" values="1 0 0 0 0  0 1 0 0 0  0 0 1 0 0  0 0 0 1 0"/>
						</filter>
					</defs>
					<mask maskUnits="userSpaceOnUse" x="44" y="79" width="112" height="79" id="react-mask-6_2_">
						<g class="st11">
							<path id="react-path-3_3_" class="st2" d="M124,144.6V163h4l0,0c39.8,0,72,32.2,72,72v9H0v-9c0-39.8,32.2-72,72-72l0,0h4
								v-18.4c-17.2-8.2-29.6-24.9-31.7-44.7C38.5,99.1,34,94.1,34,88V74c0-5.9,4.3-10.9,10-11.8V56l0,0c0-30.9,25.1-56,56-56l0,0
								l0,0c30.9,0,56,25.1,56,56v6.2c5.7,1,10,5.9,10,11.8v14c0,6.1-4.5,11.1-10.3,11.9C153.6,119.7,141.2,136.4,124,144.6z"/>
						</g>
					</mask>
					<path id="Neck-Shadow" class="st12" d="M156,79v23c0,30.9-25.1,56-56,56s-56-25.1-56-56V79v15c0,30.9,25.1,56,56,56
						s56-25.1,56-56V79z"/>
				</g>
				<g id="Clothing_x2F_Overall" transform="translate(0.000000, 170.000000)">
					<g id="Overall">
						<path id="react-path-345_1_" class="st13" d="M94,29.7V74h76V29.7c9.4,1.3,18.1,4.4,26,8.9l0,71.4h-9H77h-9V38.6
							C75.9,34.1,84.6,31,94,29.7z"/>
					</g>
					<defs>
						<filter id="Adobe_OpacityMaskFilter_4_" filterUnits="userSpaceOnUse" x="0" y="0" width="264" height="110">
							<feColorMatrix  type="matrix" values="1 0 0 0 0  0 1 0 0 0  0 0 1 0 0  0 0 0 1 0"/>
						</filter>
					</defs>
					<mask maskUnits="userSpaceOnUse" x="0" y="0" width="264" height="110" id="react-mask-346_1_">
						<g class="st14">
							<path id="react-path-345_2_" class="st2" d="M94,29.7V74h76V29.7c9.4,1.3,18.1,4.4,26,8.9l0,71.4h-9H77h-9V38.6
								C75.9,34.1,84.6,31,94,29.7z"/>
						</g>
					</mask>
					<g id="Color_x2F_Palette_x2F_Gray-01" class="st15">
						<rect id="_xD83D__xDD8D_Color_1_" class="st16" width="264" height="110"/>
					</g>
					<circle id="Button" class="st17" cx="81" cy="83" r="5"/>
					<circle id="Button_1_" class="st17" cx="183" cy="83" r="5"/>
				</g>
				<g id="Face" transform="translate(76.000000, 82.000000)">
					<g id="Mouth_x2F_Serious" transform="translate(2.000000, 52.000000)">
						<path id="Why-so-serious_x3F_" class="st18" d="M45,18h18c1.7,0,3,1.3,3,3l0,0c0,1.7-1.3,3-3,3H45c-1.7,0-3-1.3-3-3l0,0
							C42,19.3,43.3,18,45,18z"/>
					</g>
					<g id="Nose_x2F_Default" transform="translate(28.000000, 40.000000)">
						<path id="Nose" class="st19" d="M16,8c0,4.4,5.4,8,12,8l0,0c6.6,0,12-3.6,12-8"/>
					</g>
					<g id="Eyes_x2F_Eye-Roll-_xD83D__xDE44_" transform="translate(0.000000, 8.000000)">
						<circle id="Eyeball" class="st2" cx="30" cy="22" r="14"/>
						<circle id="The-white-stuff" class="st2" cx="82" cy="22" r="14"/>
						<circle id="Eye" class="st18" cx="30" cy="14" r="6"/>
						<circle id="Eye_1_" class="st18" cx="82" cy="14" r="6"/>
					</g>
					<g id="Eyebrow_x2F_Outline_x2F_Up-Down">
						<path id="Eyebrow" class="st20" d="M15.6,14.2c4.5-6.3,14-9.5,23.8-6.4c1.1,0.3,2.2-0.2,2.5-1.3S41.6,4.3,40.6,4
							c-11.4-3.7-22.7,0.1-28.2,7.9c-0.6,0.9-0.4,2.1,0.5,2.8C13.7,15.3,15,15.1,15.6,14.2z"/>
						<path id="Eyebrow_1_" class="st20" d="M96.4,21.2c-3.9-5.5-14.6-8.6-23.9-6.3c-1.1,0.3-2.2-0.4-2.4-1.5
							c-0.3-1.1,0.4-2.2,1.5-2.4c10.7-2.6,23.2,0.9,28.1,7.9c0.6,0.9,0.4,2.1-0.5,2.8C98.3,22.3,97,22.1,96.4,21.2z"/>
					</g>
				</g>
				<g id="Top">
					<g id="Mask_1_">
					</g>
					<defs>
						<filter id="Adobe_OpacityMaskFilter_5_" filterUnits="userSpaceOnUse" x="-1" y="0" width="281" height="316">
							<feColorMatrix  type="matrix" values="1 0 0 0 0  0 1 0 0 0  0 0 1 0 0  0 0 0 1 0"/>
						</filter>
					</defs>
					<mask maskUnits="userSpaceOnUse" x="-1" y="0" width="281" height="316" id="react-mask-349_1_">
						<g class="st21">
							<rect id="react-path-351_1_" class="st2" width="264" height="280"/>
						</g>
					</mask>
					<g id="Top_x2F_Short-Hair_x2F_Short-Round" class="st22">
						<g transform="translate(-1.000000, 0.000000)">
							<g id="Facial-Hair_x2F_Moustache-Fancy" transform="translate(49.000000, 72.000000)">
								<g id="Moustache-U-a-Question">
									<path id="react-path-353_1_" class="st23" d="M84,69.3c-6.8-3.6-16.4-4.1-21.6-2.2c-5.8,2.2-10.9,8.5-19.7,5.7
										c-0.4-0.1-0.7,0.2-0.6,0.6c1.4,4.5,9,7.6,11.6,7.7C65,81.5,74.1,72.8,84,72.2c9.9,0.7,19,9.4,30.4,8.9
										c2.6-0.1,10.2-3.2,11.6-7.7c0.1-0.4-0.2-0.7-0.6-0.6c-8.9,2.8-14-3.5-19.7-5.7C100.4,65.1,90.8,65.7,84,69.3z"/>
								</g>
								<defs>
									<filter id="Adobe_OpacityMaskFilter_6_" filterUnits="userSpaceOnUse" x="-32" y="0" width="264" height="244">
										<feColorMatrix  type="matrix" values="1 0 0 0 0  0 1 0 0 0  0 0 1 0 0  0 0 0 1 0"/>
									</filter>
								</defs>
								<mask maskUnits="userSpaceOnUse" x="-32" y="0" width="264" height="244" id="react-mask-352_1_">
									<g class="st24">
										<path id="react-path-353_2_" class="st2" d="M84,69.3c-6.8-3.6-16.4-4.1-21.6-2.2c-5.8,2.2-10.9,8.5-19.7,5.7
											c-0.4-0.1-0.7,0.2-0.6,0.6c1.4,4.5,9,7.6,11.6,7.7C65,81.5,74.1,72.8,84,72.2c9.9,0.7,19,9.4,30.4,8.9
											c2.6-0.1,10.2-3.2,11.6-7.7c0.1-0.4-0.2-0.7-0.6-0.6c-8.9,2.8-14-3.5-19.7-5.7C100.4,65.1,90.8,65.7,84,69.3z"/>
									</g>
								</mask>
								<g id="Color_x2F_Hair_x2F_Brown" class="st25">
									<g id="Color_1_" transform="translate(-32.000000, 0.000000)">
										<rect class="st26" width="264" height="244"/>
									</g>
								</g>
							</g>
							<g id="Short-Hair">
								<path id="react-path-350_1_" class="st23" d="M167.3,35c-20.2-11.7-40.2-9.8-55.3-6S88,43.7,80.4,59.6
									c-3.8,7.9-6,17.1-6.3,25.8c-0.1,3.4,0.3,6.9,1.2,10.2c0.3,1.2,2.2,5.4,2.7,2c0.2-1.1-0.4-2.7-0.5-3.9
									c-0.1-1.6,0-3.2,0.1-4.7c0.2-2.9,0.7-5.8,1.7-8.6c1.3-4,3-8.3,5.6-11.7c6.4-8.3,17.5-8.8,26.3-13.4
									c-0.8,1.4-3.7,3.7-2.7,5.3c0.7,1.1,3.4,0.8,4.6,0.7c3.3-0.1,6.7-0.7,10-1.1c5.2-0.7,10.1-2.3,15-4.1c4-1.5,8.6-2.9,11.6-6.1
									c4.9,5,11.1,9.8,17.4,13c5.6,2.9,14.7,4.3,18.1,10.2c4.1,6.9,2.2,15.4,3.4,22.9c0.5,2.8,1.5,2.8,2.1,0.2
									c1-4.3,1.5-8.8,1.2-13.3C191.2,73.1,187.5,46.7,167.3,35z"/>
							</g>
							<defs>
								<filter id="Adobe_OpacityMaskFilter_7_" filterUnits="userSpaceOnUse" x="0" y="0" width="264" height="280">
									<feColorMatrix  type="matrix" values="1 0 0 0 0  0 1 0 0 0  0 0 1 0 0  0 0 0 1 0"/>
								</filter>
							</defs>
							<mask maskUnits="userSpaceOnUse" x="0" y="0" width="264" height="280" id="react-mask-348_1_">
								<g class="st27">
									<path id="react-path-350_2_" class="st2" d="M167.3,35c-20.2-11.7-40.2-9.8-55.3-6S88,43.7,80.4,59.6
										c-3.8,7.9-6,17.1-6.3,25.8c-0.1,3.4,0.3,6.9,1.2,10.2c0.3,1.2,2.2,5.4,2.7,2c0.2-1.1-0.4-2.7-0.5-3.9
										c-0.1-1.6,0-3.2,0.1-4.7c0.2-2.9,0.7-5.8,1.7-8.6c1.3-4,3-8.3,5.6-11.7c6.4-8.3,17.5-8.8,26.3-13.4
										c-0.8,1.4-3.7,3.7-2.7,5.3c0.7,1.1,3.4,0.8,4.6,0.7c3.3-0.1,6.7-0.7,10-1.1c5.2-0.7,10.1-2.3,15-4.1
										c4-1.5,8.6-2.9,11.6-6.1c4.9,5,11.1,9.8,17.4,13c5.6,2.9,14.7,4.3,18.1,10.2c4.1,6.9,2.2,15.4,3.4,22.9
										c0.5,2.8,1.5,2.8,2.1,0.2c1-4.3,1.5-8.8,1.2-13.3C191.2,73.1,187.5,46.7,167.3,35z"/>
								</g>
							</mask>
							<g id="Skin_x2F__xD83D__xDC76__xD83C__xDFFD_-03-Brown_1_" class="st28">
								<g id="Color_2_" transform="translate(0.000000, 0.000000) ">
									<rect class="st26" width="264" height="280"/>
								</g>
							</g>
							<g id="Top_x2F__x5F_Resources_x2F_Round" transform="translate(62.000000, 85.000000)">
								<g id="Lennon-Glasses">
									<g>
										<path id="react-path-354" class="st29" d="M80.5,16.4C84.4,8.5,92.6,3,102,3c8.9,0,16.7,4.9,20.8,12.1
											c0.2-0.1,0.4-0.1,0.7-0.1h8c1.4,0,2.5,1.1,2.5,2.5s-1.1,2.5-2.5,2.5H125c0.7,2.2,1,4.6,1,7c0,13.3-10.7,24-24,24
											S78,40.3,78,27c0-1.4,0.1-2.8,0.4-4.2c-0.1-4.4-3.4-7.8-7.5-7.8c-3.7,0-6.9,2.9-7.4,6.8c0.4,1.7,0.6,3.4,0.6,5.2
											c0,13.3-10.7,24-24,24S16,40.3,16,27c0-2.4,0.4-4.8,1-7h-6.5C9.1,20,8,18.9,8,17.5S9.1,15,10.5,15l0,0h8
											c0.2,0,0.4,0,0.7,0.1C23.3,7.9,31.1,3,40,3c9.4,0,17.5,5.3,21.4,13.2c2.1-3.1,5.5-5.2,9.4-5.2
											C74.9,11,78.4,13.1,80.5,16.4z M40,47c11,0,20-9,20-20S51,7,40,7s-20,9-20,20S29,47,40,47z M102,47c11,0,20-9,20-20
											s-9-20-20-20s-20,9-20,20S91,47,102,47z"/>
									</g>
									<g>
										<path id="react-path-354_1_" class="st30" d="M80.5,16.4C84.4,8.5,92.6,3,102,3c8.9,0,16.7,4.9,20.8,12.1
											c0.2-0.1,0.4-0.1,0.7-0.1h8c1.4,0,2.5,1.1,2.5,2.5s-1.1,2.5-2.5,2.5H125c0.7,2.2,1,4.6,1,7c0,13.3-10.7,24-24,24
											S78,40.3,78,27c0-1.4,0.1-2.8,0.4-4.2c-0.1-4.4-3.4-7.8-7.5-7.8c-3.7,0-6.9,2.9-7.4,6.8c0.4,1.7,0.6,3.4,0.6,5.2
											c0,13.3-10.7,24-24,24S16,40.3,16,27c0-2.4,0.4-4.8,1-7h-6.5C9.1,20,8,18.9,8,17.5S9.1,15,10.5,15l0,0h8
											c0.2,0,0.4,0,0.7,0.1C23.3,7.9,31.1,3,40,3c9.4,0,17.5,5.3,21.4,13.2c2.1-3.1,5.5-5.2,9.4-5.2
											C74.9,11,78.4,13.1,80.5,16.4z M40,47c11,0,20-9,20-20S51,7,40,7s-20,9-20,20S29,47,40,47z M102,47c11,0,20-9,20-20
											s-9-20-20-20s-20,9-20,20S91,47,102,47z"/>
									</g>
								</g>
							</g>
						</g>
					</g>
				</g>
			</g>
		</g>
	</g>
</g>
</svg>
