<?xml version="1.0" encoding="utf-8"?>
<!-- Generator: Adobe Illustrator 24.1.2, SVG Export Plug-In . SVG Version: 6.00 Build 0)  -->
<svg version="1.1" id="Capa_1" xmlns="http://www.w3.org/2000/svg" xmlns:xlink="http://www.w3.org/1999/xlink" x="0px" y="0px"
	 viewBox="0 0 264 280" style="enable-background:new 0 0 264 280;" xml:space="preserve">
<style type="text/css">
	.st0{fill-rule:evenodd;clip-rule:evenodd;fill:#E6E6E6;}
	.st1{filter:url(#Adobe_OpacityMaskFilter);}
	.st2{fill-rule:evenodd;clip-rule:evenodd;fill:#FFFFFF;}
	.st3{mask:url(#react-mask-4_1_);}
	.st4{fill-rule:evenodd;clip-rule:evenodd;fill:#68B02B;}
	.st5{filter:url(#Adobe_OpacityMaskFilter_1_);}
	.st6{mask:url(#react-mask-5_1_);}
	.st7{fill-rule:evenodd;clip-rule:evenodd;fill:#D0C6AC;}
	.st8{filter:url(#Adobe_OpacityMaskFilter_2_);}
	.st9{mask:url(#react-mask-6_1_);}
	.st10{fill-rule:evenodd;clip-rule:evenodd;fill:#EDB98A;}
	.st11{filter:url(#Adobe_OpacityMaskFilter_3_);}
	.st12{mask:url(#react-mask-6_2_);fill-rule:evenodd;clip-rule:evenodd;fill-opacity:0.1;}
	.st13{filter:url(#Adobe_OpacityMaskFilter_4_);}
	.st14{mask:url(#react-mask-56_1_);}
	.st15{fill-rule:evenodd;clip-rule:evenodd;fill:#FF488E;}
	.st16{filter:url(#Adobe_OpacityMaskFilter_5_);}
	.st17{mask:url(#react-mask-56_2_);}
	.st18{fill-opacity:0.6;}
	.st19{fill-rule:evenodd;clip-rule:evenodd;fill-opacity:0.16;}
	.st20{fill-rule:evenodd;clip-rule:evenodd;fill-opacity:0.6;}
	.st21{filter:url(#Adobe_OpacityMaskFilter_6_);}
	.st22{mask:url(#react-mask-58_1_);}
	.st23{fill-rule:evenodd;clip-rule:evenodd;fill:#331B0C;}
	.st24{filter:url(#Adobe_OpacityMaskFilter_7_);}
	.st25{mask:url(#react-mask-62_1_);}
	.st26{fill-rule:evenodd;clip-rule:evenodd;fill:#4A312C;}
	.st27{fill-rule:evenodd;clip-rule:evenodd;fill:#28354B;}
	.st28{filter:url(#Adobe_OpacityMaskFilter_8_);}
	.st29{mask:url(#react-mask-59_1_);}
	.st30{fill-rule:evenodd;clip-rule:evenodd;fill:#000FDB;}
	.st31{fill:#F4F4F4;}
	.st32{fill:#2F383B;}
</style>
<desc>Created with getavataaars.com</desc>
<g id="Avataaar_1_">
	<g id="Avataaar_x2F_Circle" transform="translate(-825.000000, -1100.000000)">
		<g transform="translate(825.000000, 1100.000000)">
			<g id="Circle" transform="translate(12.000000, 40.000000)">
				<g id="Circle-Background">
					<circle id="react-path-1_1_" class="st0" cx="120" cy="120" r="120"/>
				</g>
				<defs>
					<filter id="Adobe_OpacityMaskFilter" filterUnits="userSpaceOnUse" x="0" y="0" width="240" height="240">
						<feColorMatrix  type="matrix" values="1 0 0 0 0  0 1 0 0 0  0 0 1 0 0  0 0 0 1 0"/>
					</filter>
				</defs>
				<mask maskUnits="userSpaceOnUse" x="0" y="0" width="240" height="240" id="react-mask-4_1_">
					<g class="st1">
						<circle id="react-path-1_2_" class="st2" cx="120" cy="120" r="120"/>
					</g>
				</mask>
				<g id="Color_x2F_Palette_x2F_Blue-01" class="st3">
					<rect id="_xD83D__xDD8D_Color" class="st4" width="240" height="240"/>
				</g>
			</g>
			<g id="Mask">
			</g>
			<defs>
				<filter id="Adobe_OpacityMaskFilter_1_" filterUnits="userSpaceOnUse" x="0" y="34" width="338" height="282">
					<feColorMatrix  type="matrix" values="1 0 0 0 0  0 1 0 0 0  0 0 1 0 0  0 0 0 1 0"/>
				</filter>
			</defs>
			<mask maskUnits="userSpaceOnUse" x="0" y="34" width="338" height="282" id="react-mask-5_1_">
				<g class="st5">
					<path id="react-path-2_1_" class="st2" d="M12,160c0,66.3,53.7,120,120,120s120-53.7,120-120h12V0H0v160H12z"/>
				</g>
			</mask>
			<g id="Avataaar" class="st6">
				<g id="Body" transform="translate(32.000000, 36.000000)">
					<g>
						<path id="react-path-3_1_" class="st7" d="M124,144.6V163h4l0,0c39.8,0,72,32.2,72,72v9H0v-9c0-39.8,32.2-72,72-72l0,0h4
							v-18.4c-17.2-8.2-29.6-24.9-31.7-44.7C38.5,99.1,34,94.1,34,88V74c0-5.9,4.3-10.9,10-11.8V56l0,0c0-30.9,25.1-56,56-56l0,0
							l0,0c30.9,0,56,25.1,56,56v6.2c5.7,1,10,5.9,10,11.8v14c0,6.1-4.5,11.1-10.3,11.9C153.6,119.7,141.2,136.4,124,144.6z"/>
					</g>
					<defs>
						<filter id="Adobe_OpacityMaskFilter_2_" filterUnits="userSpaceOnUse" x="0" y="0" width="264" height="280">
							<feColorMatrix  type="matrix" values="1 0 0 0 0  0 1 0 0 0  0 0 1 0 0  0 0 0 1 0"/>
						</filter>
					</defs>
					<mask maskUnits="userSpaceOnUse" x="0" y="0" width="264" height="280" id="react-mask-6_1_">
						<g class="st8">
							<path id="react-path-3_2_" class="st2" d="M124,144.6V163h4l0,0c39.8,0,72,32.2,72,72v9H0v-9c0-39.8,32.2-72,72-72l0,0h4
								v-18.4c-17.2-8.2-29.6-24.9-31.7-44.7C38.5,99.1,34,94.1,34,88V74c0-5.9,4.3-10.9,10-11.8V56l0,0c0-30.9,25.1-56,56-56l0,0
								l0,0c30.9,0,56,25.1,56,56v6.2c5.7,1,10,5.9,10,11.8v14c0,6.1-4.5,11.1-10.3,11.9C153.6,119.7,141.2,136.4,124,144.6z"/>
						</g>
					</mask>
					<g id="Skin_x2F__xD83D__xDC76__xD83C__xDFFD_-03-Brown" class="st9">
						<g id="Color" transform="translate(0.000000, 0.000000)">
							<rect class="st10" width="264" height="280"/>
						</g>
					</g>
					<defs>
						<filter id="Adobe_OpacityMaskFilter_3_" filterUnits="userSpaceOnUse" x="44" y="79" width="112" height="79">
							<feColorMatrix  type="matrix" values="1 0 0 0 0  0 1 0 0 0  0 0 1 0 0  0 0 0 1 0"/>
						</filter>
					</defs>
					<mask maskUnits="userSpaceOnUse" x="44" y="79" width="112" height="79" id="react-mask-6_2_">
						<g class="st11">
							<path id="react-path-3_3_" class="st2" d="M124,144.6V163h4l0,0c39.8,0,72,32.2,72,72v9H0v-9c0-39.8,32.2-72,72-72l0,0h4
								v-18.4c-17.2-8.2-29.6-24.9-31.7-44.7C38.5,99.1,34,94.1,34,88V74c0-5.9,4.3-10.9,10-11.8V56l0,0c0-30.9,25.1-56,56-56l0,0
								l0,0c30.9,0,56,25.1,56,56v6.2c5.7,1,10,5.9,10,11.8v14c0,6.1-4.5,11.1-10.3,11.9C153.6,119.7,141.2,136.4,124,144.6z"/>
						</g>
					</mask>
					<path id="Neck-Shadow" class="st12" d="M156,79v23c0,30.9-25.1,56-56,56s-56-25.1-56-56V79v15c0,30.9,25.1,56,56,56
						s56-25.1,56-56V79z"/>
				</g>
				<g id="Clothing_x2F_Graphic-Shirt" transform="translate(0.000000, 170.000000)">
					<g id="Clothes">
						<path id="react-path-55_1_" class="st0" d="M165.6,29.3c37.1,2.9,66.4,33.9,66.4,71.8v8.9H32v-8.9c0-38.2,29.8-69.5,67.4-71.9
							c-0.3,1.1-0.4,2.2-0.4,3.3C99,44.4,114,54,132.5,54S166,44.4,166,32.5C166,31.4,165.9,30.3,165.6,29.3L165.6,29.3z"/>
					</g>
					<defs>
						<filter id="Adobe_OpacityMaskFilter_4_" filterUnits="userSpaceOnUse" x="0" y="0" width="264" height="110">
							<feColorMatrix  type="matrix" values="1 0 0 0 0  0 1 0 0 0  0 0 1 0 0  0 0 0 1 0"/>
						</filter>
					</defs>
					<mask maskUnits="userSpaceOnUse" x="0" y="0" width="264" height="110" id="react-mask-56_1_">
						<g class="st13">
							<path id="react-path-55_2_" class="st2" d="M165.6,29.3c37.1,2.9,66.4,33.9,66.4,71.8v8.9H32v-8.9
								c0-38.2,29.8-69.5,67.4-71.9c-0.3,1.1-0.4,2.2-0.4,3.3C99,44.4,114,54,132.5,54S166,44.4,166,32.5
								C166,31.4,165.9,30.3,165.6,29.3L165.6,29.3z"/>
						</g>
					</mask>
					<g id="Color_x2F_Palette_x2F_Gray-01" class="st14">
						<rect id="_xD83D__xDD8D_Color_1_" class="st15" width="264" height="110"/>
					</g>
					<defs>
						<filter id="Adobe_OpacityMaskFilter_5_" filterUnits="userSpaceOnUse" x="113" y="60" width="37.3" height="40">
							<feColorMatrix  type="matrix" values="1 0 0 0 0  0 1 0 0 0  0 0 1 0 0  0 0 0 1 0"/>
						</filter>
					</defs>
					<mask maskUnits="userSpaceOnUse" x="113" y="60" width="37.3" height="40" id="react-mask-56_2_">
						<g class="st16">
							<path id="react-path-55_3_" class="st2" d="M165.6,29.3c37.1,2.9,66.4,33.9,66.4,71.8v8.9H32v-8.9
								c0-38.2,29.8-69.5,67.4-71.9c-0.3,1.1-0.4,2.2-0.4,3.3C99,44.4,114,54,132.5,54S166,44.4,166,32.5
								C166,31.4,165.9,30.3,165.6,29.3L165.6,29.3z"/>
						</g>
					</mask>
					<g id="Clothing_x2F_Graphic_x2F_Skull" class="st17">
						<g id="Fill-49" transform="translate(77.000000, 58.000000)">
							<path class="st2" d="M65.3,19.9c-0.3,2.8-5.7,4.3-7.7,2.4c-0.9-0.8-0.9-2.6-1.1-3.7c-0.4-2.1-0.7-4.3-0.8-6.4
								c-0.1-1.3-0.4-2.4,1-2.6c0.9-0.1,1.8,0.5,2.5,0.9C61.7,12.2,65.6,16.7,65.3,19.9 M52.9,14.1c0.3,2.8,1.3,7.7-0.9,10.1
								c-2,2.1-6.2,0-6.8-2.5c-0.8-3.1,2.3-6.8,4.1-8.9c0.6-0.6,1.8-2.4,2.8-1.8C52.5,11.2,52.8,13.6,52.9,14.1 M54.3,25.1
								c0.6-1.5,6.9,3,4,5.2c-0.5,0.4-4.2,1.5-4.9,0.9C51.9,30.1,53.8,26.3,54.3,25.1 M73.3,17.5C72.9,2.1,53.1-2.3,42.5,6.5
								c-4,3.4-6.4,7.5-6.5,12.8c-0.1,4.5,0.6,8.7,4,11.8c1.5,1.3,2.5,2.1,3.2,4c0.8,1.9,1.2,4.3,2.7,5.8c0.9,0.8,2.1,1.5,3.3,1
								c2.2-1,1.5-4,2.1-5.6c2,5,7.2,6.6,8.1,0.2c1,1.8,3.7,4.2,5.7,2.2c0.8-0.8,0.9-2.1,1.1-3.2c0.2-1.9-0.2-2.7,1.4-4
								C71.7,28,73.5,22.7,73.3,17.5"/>
						</g>
					</g>
				</g>
				<g id="Face" transform="translate(76.000000, 82.000000)">
					<g id="Mouth_x2F_Twinkle" transform="translate(2.000000, 52.000000)">
						<path id="Mouth" class="st18" d="M40,16c0,5.4,6.2,9,14,9s14-3.6,14-9c0-1.1-0.9-2-2-2c-1.3,0-1.9,0.9-2,2
							c-1.2,2.9-4.3,4.7-10,5c-5.7-0.3-8.8-2.1-10-5c-0.1-1.1-0.7-2-2-2C40.9,14,40,14.9,40,16z"/>
					</g>
					<g id="Nose_x2F_Default" transform="translate(28.000000, 40.000000)">
						<path id="Nose" class="st19" d="M16,8c0,4.4,5.4,8,12,8l0,0c6.6,0,12-3.6,12-8"/>
					</g>
					<g id="Eyes_x2F_Side-_xD83D__xDE12_" transform="translate(0.000000, 8.000000)">
						<path id="Eye" class="st20" d="M27.2,20.3c-0.8,1-1.2,2.3-1.2,3.7c0,3.3,2.7,6,6,6s6-2.7,6-6c0-0.3,0-0.6-0.1-0.9
							c0-0.2,0-0.5-0.1-0.7c0-0.1-0.1-0.2-0.1-0.4c-0.3-1-0.9-1.8-1.6-2.5c-2.1-2.2-5.5-3.6-9-3.6c-4.8,0-9,2.6-10.8,6.4
							c-0.5,1.1,0.4,1.9,1.3,1.1c2.4-2,5.8-3.2,9.6-3.2C27.1,20.3,27.2,20.3,27.2,20.3z"/>
						<path id="Eye_1_" class="st20" d="M85.2,20.3c-0.8,1-1.2,2.3-1.2,3.7c0,3.3,2.7,6,6,6s6-2.7,6-6c0-0.3,0-0.6-0.1-0.9
							c0-0.2,0-0.5-0.1-0.7c0-0.1-0.1-0.2-0.1-0.4c-0.3-1-0.9-1.8-1.6-2.5c-2.1-2.2-5.5-3.6-9-3.6c-4.8,0-9,2.6-10.8,6.4
							c-0.5,1.1,0.4,1.9,1.3,1.1c2.4-2,5.8-3.2,9.6-3.2C85.1,20.3,85.2,20.3,85.2,20.3z"/>
					</g>
					<g id="Eyebrow_x2F_Natural_x2F_Flat-Natural">
						<path id="Fill-10" class="st20" d="M38.7,11.1c-5,0.4-9.9,0.1-14.9-0.1c-3.8-0.2-7.7-0.7-11.4,1c-0.7,0.3-4.5,2.3-4.4,3.3
							c0.1,0.9,3.9,2.2,4.6,2.4c3.7,1.3,7.2,0.9,11,0.7c4.6-0.3,9.2-0.1,13.9-0.2c3.1-0.1,7.9-0.6,9.5-4.4c0.5-1.1,0.1-3.4-0.4-4.7
							c-0.2-0.5-0.7-0.7-1.1-0.4C43.9,9.8,41.1,10.9,38.7,11.1"/>
						<path id="Fill-10_1_" class="st20" d="M73.3,11.1c5,0.4,9.9,0.1,14.9-0.1c3.8-0.2,7.7-0.7,11.4,1c0.7,0.3,4.5,2.3,4.4,3.3
							c-0.1,0.9-3.9,2.2-4.6,2.4c-3.7,1.3-7.2,0.9-11,0.7c-4.6-0.3-9.2-0.1-13.9-0.2c-3.1-0.1-7.9-0.6-9.5-4.4
							c-0.5-1.1-0.1-3.4,0.4-4.7c0.2-0.5,0.7-0.7,1.1-0.4C68.1,9.8,70.9,10.9,73.3,11.1"/>
					</g>
				</g>
				<g id="Top">
					<g id="Mask_1_">
					</g>
					<defs>
						<filter id="Adobe_OpacityMaskFilter_6_" filterUnits="userSpaceOnUse" x="16" y="34" width="322" height="282">
							<feColorMatrix  type="matrix" values="1 0 0 0 0  0 1 0 0 0  0 0 1 0 0  0 0 0 1 0"/>
						</filter>
					</defs>
					<mask maskUnits="userSpaceOnUse" x="16" y="34" width="322" height="282" id="react-mask-58_1_">
						<g class="st21">
							<rect id="react-path-60_1_" class="st2" width="264" height="280"/>
						</g>
					</mask>
					<g id="Top_x2F_Short-Hair_x2F_The-Caesar-_x2B_-Side-Part" class="st22">
						<g transform="translate(-1.000000, 0.000000)">
							<g id="Facial-Hair_x2F_Beard-Light" transform="translate(49.000000, 72.000000)">
								<g id="Lite-Beard">
									<path id="react-path-63_1_" class="st23" d="M101.4,98.2c-2.5,2.3-5.2,3.3-8.6,2.6c-0.6-0.1-3-4.5-8.9-4.5
										c-5.9,0-8.3,4.4-8.9,4.5c-3.4,0.7-6.1-0.3-8.6-2.6c-4.7-4.3-8.7-10.3-6.3-16.7c1.2-3.4,3.2-7.1,6.9-8.2
										c3.9-1.2,9.3,0,13.3-0.8c1.3-0.3,2.7-0.7,3.6-1.5c0.9,0.8,2.3,1.2,3.6,1.5c3.9,0.8,9.4-0.4,13.3,0.8
										c3.6,1.1,5.6,4.8,6.9,8.2C110.1,87.9,106.2,93.9,101.4,98.2 M140.1,26c-3.4,8.4-2.1,18.9-2.7,27.7
										c-0.5,7.2-2,17.9-8.4,22.5c-3.3,2.4-9.2,6.3-13.4,5.2c-2.9-0.8-3.2-9.2-7.1-12.3c-4.4-3.6-9.8-5.1-15.3-4.9
										c-2.4,0.1-7.2,0.1-9.1,1.9c-2-1.8-6.8-1.8-9.1-1.9c-5.5-0.2-10.9,1.3-15.3,4.9c-3.8,3.1-4.2,11.5-7.1,12.3
										c-4.3,1.1-10.2-2.9-13.4-5.2c-6.4-4.6-7.9-15.4-8.4-22.5C30,44.9,31.3,34.4,27.9,26c-1.7,0-0.6,16.1-0.6,16.1v20.4
										c0,15.3,9.6,38.2,30.8,46.9C63.3,111.5,75,115,84,115s20.7-3.1,25.9-5.3c21.2-8.7,30.7-32,30.8-47.2V42.1
										C140.6,42.1,141.7,26,140.1,26"/>
								</g>
								<defs>
									<filter id="Adobe_OpacityMaskFilter_7_" filterUnits="userSpaceOnUse" x="-32" y="0" width="264" height="244">
										<feColorMatrix  type="matrix" values="1 0 0 0 0  0 1 0 0 0  0 0 1 0 0  0 0 0 1 0"/>
									</filter>
								</defs>
								<mask maskUnits="userSpaceOnUse" x="-32" y="0" width="264" height="244" id="react-mask-62_1_">
									<g class="st24">
										<path id="react-path-63_2_" class="st2" d="M101.4,98.2c-2.5,2.3-5.2,3.3-8.6,2.6c-0.6-0.1-3-4.5-8.9-4.5
											c-5.9,0-8.3,4.4-8.9,4.5c-3.4,0.7-6.1-0.3-8.6-2.6c-4.7-4.3-8.7-10.3-6.3-16.7c1.2-3.4,3.2-7.1,6.9-8.2
											c3.9-1.2,9.3,0,13.3-0.8c1.3-0.3,2.7-0.7,3.6-1.5c0.9,0.8,2.3,1.2,3.6,1.5c3.9,0.8,9.4-0.4,13.3,0.8
											c3.6,1.1,5.6,4.8,6.9,8.2C110.1,87.9,106.2,93.9,101.4,98.2 M140.1,26c-3.4,8.4-2.1,18.9-2.7,27.7
											c-0.5,7.2-2,17.9-8.4,22.5c-3.3,2.4-9.2,6.3-13.4,5.2c-2.9-0.8-3.2-9.2-7.1-12.3c-4.4-3.6-9.8-5.1-15.3-4.9
											c-2.4,0.1-7.2,0.1-9.1,1.9c-2-1.8-6.8-1.8-9.1-1.9c-5.5-0.2-10.9,1.3-15.3,4.9c-3.8,3.1-4.2,11.5-7.1,12.3
											c-4.3,1.1-10.2-2.9-13.4-5.2c-6.4-4.6-7.9-15.4-8.4-22.5C30,44.9,31.3,34.4,27.9,26c-1.7,0-0.6,16.1-0.6,16.1v20.4
											c0,15.3,9.6,38.2,30.8,46.9C63.3,111.5,75,115,84,115s20.7-3.1,25.9-5.3c21.2-8.7,30.7-32,30.8-47.2V42.1
											C140.6,42.1,141.7,26,140.1,26"/>
									</g>
								</mask>
								<g id="Color_x2F_Hair_x2F_Brown" class="st25">
									<g id="Color_1_" transform="translate(-32.000000, 0.000000)">
										<rect class="st26" width="264" height="244"/>
									</g>
								</g>
							</g>
							<g id="Hair" transform="translate(75.000000, 34.000000)">
								<g id="Caesar">
									<path id="react-path-61_1_" class="st27" d="M82,24.4c-7-0.7-15.4-1.1-23.7-1.1C39,23.2,19.6,25.5,16,28
										C6.3,35.2,2.5,62.4,3,64c-0.3,1.2-1.7,1.5-2,0C0.3,53.7,1,1.7,58,1s57.7,52.7,57,63c-0.3,1.5-1.7,1.2-2,0
										c0.5-1.6-3.3-28.8-13-36c-1.8-1.2-7.2-2.4-14.6-3.3L89,16L82,24.4z"/>
								</g>
								<defs>
									<filter id="Adobe_OpacityMaskFilter_8_" filterUnits="userSpaceOnUse" x="0" y="0" width="264" height="280">
										<feColorMatrix  type="matrix" values="1 0 0 0 0  0 1 0 0 0  0 0 1 0 0  0 0 0 1 0"/>
									</filter>
								</defs>
								<mask maskUnits="userSpaceOnUse" x="0" y="0" width="264" height="280" id="react-mask-59_1_">
									<g class="st28">
										<path id="react-path-61_2_" class="st2" d="M82,24.4c-7-0.7-15.4-1.1-23.7-1.1C39,23.2,19.6,25.5,16,28
											C6.3,35.2,2.5,62.4,3,64c-0.3,1.2-1.7,1.5-2,0C0.3,53.7,1,1.7,58,1s57.7,52.7,57,63c-0.3,1.5-1.7,1.2-2,0
											c0.5-1.6-3.3-28.8-13-36c-1.8-1.2-7.2-2.4-14.6-3.3L89,16L82,24.4z"/>
									</g>
								</mask>
								<g id="Skin_x2F__xD83D__xDC76__xD83C__xDFFD_-03-Brown_1_" class="st29">
									<g id="Color_2_" transform="translate(0.000000, 0.000000) ">
										<rect class="st30" width="264" height="280"/>
									</g>
								</g>
							</g>
							<g id="Top_x2F__x5F_Resources_x2F_Kurt" transform="translate(62.000000, 85.000000)">
								<g id="Kurts" transform="translate(5.000000, 2.000000)">
									<path id="It_x21_" class="st31" d="M66,11.1C55,11.1,53.4,2,30.7,0.7C8-0.3,0.8,6.4,0.8,11.1c0,4.3-1.1,15.5,13.6,28.5
										c14.8,15.5,29.9,10.3,35.3,5.2c5.4-2.3,11.6-23.4,16.3-23.3s10.9,21,16.3,23.3c5.4,5.1,20.6,10.3,35.3-5.2
										c14.7-13.1,13.6-24.2,13.6-28.5c0-4.7-7.2-11.4-29.9-10.4C78.6,2,77,11.1,66,11.1z"/>
									<path id="Did" class="st32" d="M55.1,21.5C55.5,13.8,42.2,5.6,28,5.9c-14.3,0.3-16.1,9.5-16.3,13
										C11.3,27,20,45.3,36.1,44.8C52.2,44.3,54.9,26.5,55.1,21.5z"/>
									<path id="Courtney" class="st32" d="M76.9,21.5C76.5,13.8,89.8,5.6,104,5.9c14.3,0.3,16.1,9.5,16.3,13
										c0.3,8.1-8.4,26.4-24.5,25.9C79.8,44.3,77.1,26.5,76.9,21.5z"/>
								</g>
							</g>
						</g>
					</g>
				</g>
			</g>
		</g>
	</g>
</g>
</svg>
