<?xml version="1.0" encoding="utf-8"?>
<!-- Generator: Adobe Illustrator 24.1.2, SVG Export Plug-In . SVG Version: 6.00 Build 0)  -->
<svg version="1.1" id="Capa_1" xmlns="http://www.w3.org/2000/svg" xmlns:xlink="http://www.w3.org/1999/xlink" x="0px" y="0px"
	 viewBox="0 0 264 280" style="enable-background:new 0 0 264 280;" xml:space="preserve">
<style type="text/css">
	.st0{fill-rule:evenodd;clip-rule:evenodd;fill:#E6E6E6;}
	.st1{filter:url(#Adobe_OpacityMaskFilter);}
	.st2{fill-rule:evenodd;clip-rule:evenodd;fill:#FFFFFF;}
	.st3{mask:url(#react-mask-4_1_);}
	.st4{fill-rule:evenodd;clip-rule:evenodd;fill:#68B02B;}
	.st5{filter:url(#Adobe_OpacityMaskFilter_1_);}
	.st6{mask:url(#react-mask-5_1_);}
	.st7{fill-rule:evenodd;clip-rule:evenodd;fill:#D0C6AC;}
	.st8{filter:url(#Adobe_OpacityMaskFilter_2_);}
	.st9{mask:url(#react-mask-6_1_);}
	.st10{fill-rule:evenodd;clip-rule:evenodd;fill:#FFDBB4;}
	.st11{filter:url(#Adobe_OpacityMaskFilter_3_);}
	.st12{mask:url(#react-mask-6_2_);fill-rule:evenodd;clip-rule:evenodd;fill-opacity:0.1;}
	.st13{filter:url(#Adobe_OpacityMaskFilter_4_);}
	.st14{mask:url(#react-mask-222_1_);}
	.st15{fill-rule:evenodd;clip-rule:evenodd;fill:#262E33;}
	.st16{fill-rule:evenodd;clip-rule:evenodd;fill:#3A4C5A;}
	.st17{fill-rule:evenodd;clip-rule:evenodd;fill:#2F4351;}
	.st18{fill-rule:evenodd;clip-rule:evenodd;fill:#F2F2F2;}
	.st19{fill-opacity:0.6;}
	.st20{fill-rule:evenodd;clip-rule:evenodd;fill-opacity:0.16;}
	.st21{fill-rule:evenodd;clip-rule:evenodd;fill-opacity:0.6;}
	.st22{filter:url(#Adobe_OpacityMaskFilter_5_);}
	.st23{mask:url(#react-mask-224_1_);}
	.st24{fill-rule:evenodd;clip-rule:evenodd;fill:#28354B;}
	.st25{filter:url(#Adobe_OpacityMaskFilter_6_);}
	.st26{mask:url(#react-mask-228_1_);}
	.st27{fill-rule:evenodd;clip-rule:evenodd;fill:#C93305;}
	.st28{fill-rule:evenodd;clip-rule:evenodd;fill:#2E3257;}
	.st29{filter:url(#Adobe_OpacityMaskFilter_7_);}
	.st30{mask:url(#react-mask-223_1_);}
	.st31{fill-rule:evenodd;clip-rule:evenodd;fill:#724133;}
	.st32{fill:#F4F4F4;}
	.st33{fill:#2F383B;}
</style>
<desc>Created with getavataaars.com</desc>
<g id="Avataaar_1_">
	<g id="Avataaar_x2F_Circle" transform="translate(-825.000000, -1100.000000)">
		<g transform="translate(825.000000, 1100.000000)">
			<g id="Circle" transform="translate(12.000000, 40.000000)">
				<g id="Circle-Background">
					<circle id="react-path-1_1_" class="st0" cx="120" cy="120" r="120"/>
				</g>
				<defs>
					<filter id="Adobe_OpacityMaskFilter" filterUnits="userSpaceOnUse" x="0" y="0" width="240" height="240">
						<feColorMatrix  type="matrix" values="1 0 0 0 0  0 1 0 0 0  0 0 1 0 0  0 0 0 1 0"/>
					</filter>
				</defs>
				<mask maskUnits="userSpaceOnUse" x="0" y="0" width="240" height="240" id="react-mask-4_1_">
					<g class="st1">
						<circle id="react-path-1_2_" class="st2" cx="120" cy="120" r="120"/>
					</g>
				</mask>
				<g id="Color_x2F_Palette_x2F_Blue-01" class="st3">
					<rect id="_xD83D__xDD8D_Color" class="st4" width="240" height="240"/>
				</g>
			</g>
			<g id="Mask">
			</g>
			<defs>
				<filter id="Adobe_OpacityMaskFilter_1_" filterUnits="userSpaceOnUse" x="0" y="0" width="296" height="316">
					<feColorMatrix  type="matrix" values="1 0 0 0 0  0 1 0 0 0  0 0 1 0 0  0 0 0 1 0"/>
				</filter>
			</defs>
			<mask maskUnits="userSpaceOnUse" x="0" y="0" width="296" height="316" id="react-mask-5_1_">
				<g class="st5">
					<path id="react-path-2_1_" class="st2" d="M12,160c0,66.3,53.7,120,120,120s120-53.7,120-120h12V0H0v160H12z"/>
				</g>
			</mask>
			<g id="Avataaar" class="st6">
				<g id="Body" transform="translate(32.000000, 36.000000)">
					<g>
						<path id="react-path-3_1_" class="st7" d="M124,144.6V163h4l0,0c39.8,0,72,32.2,72,72v9H0v-9c0-39.8,32.2-72,72-72l0,0h4
							v-18.4c-17.2-8.2-29.6-24.9-31.7-44.7C38.5,99.1,34,94.1,34,88V74c0-5.9,4.3-10.9,10-11.8V56l0,0c0-30.9,25.1-56,56-56l0,0
							l0,0c30.9,0,56,25.1,56,56v6.2c5.7,1,10,5.9,10,11.8v14c0,6.1-4.5,11.1-10.3,11.9C153.6,119.7,141.2,136.4,124,144.6z"/>
					</g>
					<defs>
						<filter id="Adobe_OpacityMaskFilter_2_" filterUnits="userSpaceOnUse" x="0" y="0" width="264" height="280">
							<feColorMatrix  type="matrix" values="1 0 0 0 0  0 1 0 0 0  0 0 1 0 0  0 0 0 1 0"/>
						</filter>
					</defs>
					<mask maskUnits="userSpaceOnUse" x="0" y="0" width="264" height="280" id="react-mask-6_1_">
						<g class="st8">
							<path id="react-path-3_2_" class="st2" d="M124,144.6V163h4l0,0c39.8,0,72,32.2,72,72v9H0v-9c0-39.8,32.2-72,72-72l0,0h4
								v-18.4c-17.2-8.2-29.6-24.9-31.7-44.7C38.5,99.1,34,94.1,34,88V74c0-5.9,4.3-10.9,10-11.8V56l0,0c0-30.9,25.1-56,56-56l0,0
								l0,0c30.9,0,56,25.1,56,56v6.2c5.7,1,10,5.9,10,11.8v14c0,6.1-4.5,11.1-10.3,11.9C153.6,119.7,141.2,136.4,124,144.6z"/>
						</g>
					</mask>
					<g id="Skin_x2F__xD83D__xDC76__xD83C__xDFFD_-03-Brown" class="st9">
						<g id="Color" transform="translate(0.000000, 0.000000)">
							<rect class="st10" width="264" height="280"/>
						</g>
					</g>
					<defs>
						<filter id="Adobe_OpacityMaskFilter_3_" filterUnits="userSpaceOnUse" x="44" y="79" width="112" height="79">
							<feColorMatrix  type="matrix" values="1 0 0 0 0  0 1 0 0 0  0 0 1 0 0  0 0 0 1 0"/>
						</filter>
					</defs>
					<mask maskUnits="userSpaceOnUse" x="44" y="79" width="112" height="79" id="react-mask-6_2_">
						<g class="st11">
							<path id="react-path-3_3_" class="st2" d="M124,144.6V163h4l0,0c39.8,0,72,32.2,72,72v9H0v-9c0-39.8,32.2-72,72-72l0,0h4
								v-18.4c-17.2-8.2-29.6-24.9-31.7-44.7C38.5,99.1,34,94.1,34,88V74c0-5.9,4.3-10.9,10-11.8V56l0,0c0-30.9,25.1-56,56-56l0,0
								l0,0c30.9,0,56,25.1,56,56v6.2c5.7,1,10,5.9,10,11.8v14c0,6.1-4.5,11.1-10.3,11.9C153.6,119.7,141.2,136.4,124,144.6z"/>
						</g>
					</mask>
					<path id="Neck-Shadow" class="st12" d="M156,79v23c0,30.9-25.1,56-56,56s-56-25.1-56-56V79v15c0,30.9,25.1,56,56,56
						s56-25.1,56-56V79z"/>
				</g>
				<g id="Clothing_x2F_Blazer-_x2B_-Sweater" transform="translate(0.000000, 170.000000)">
					<g id="Clothes">
						<path id="react-path-221_1_" class="st0" d="M105.2,29.1H104l0,0c-39.8,0-72,32.2-72,72v8.9h200v-8.9c0-39.8-32.2-72-72-72
							l0,0h-1.2c0.1,1,0.2,2,0.2,3c0,13.8-12.1,25-27,25s-27-11.2-27-25C105,31,105.1,30,105.2,29.1z"/>
					</g>
					<defs>
						<filter id="Adobe_OpacityMaskFilter_4_" filterUnits="userSpaceOnUse" x="0" y="0" width="264" height="110">
							<feColorMatrix  type="matrix" values="1 0 0 0 0  0 1 0 0 0  0 0 1 0 0  0 0 0 1 0"/>
						</filter>
					</defs>
					<mask maskUnits="userSpaceOnUse" x="0" y="0" width="264" height="110" id="react-mask-222_1_">
						<g class="st13">
							<path id="react-path-221_2_" class="st2" d="M105.2,29.1H104l0,0c-39.8,0-72,32.2-72,72v8.9h200v-8.9c0-39.8-32.2-72-72-72
								l0,0h-1.2c0.1,1,0.2,2,0.2,3c0,13.8-12.1,25-27,25s-27-11.2-27-25C105,31,105.1,30,105.2,29.1z"/>
						</g>
					</mask>
					<g id="Color_x2F_Palette_x2F_Black" class="st14">
						<rect id="_xD83D__xDD8D_Color_1_" class="st15" width="264" height="110"/>
					</g>
					<g id="Blazer" transform="translate(32.000000, 28.000000)">
						<path id="Saco" class="st16" d="M68.8,1.1C30.5,2.8,0,34.4,0,73.1V82h69.4C66,69.9,64,55.7,64,40.5
							C64,26.2,65.7,12.7,68.8,1.1z M131.6,82H200v-8.9c0-38.3-30-69.7-67.8-71.9c3,11.6,4.8,25,4.8,39.3
							C137,55.7,135,69.9,131.6,82z"/>
						<path id="Pocket-hanky" class="st0" d="M149,58l9.6-7.2l0,0c1.4-1.1,3.4-1.1,4.9,0L170,56L149,58z"/>
						<path id="Wing" class="st17" d="M69,0c-4,19.3-2.3,46.7,5,82H58L44,46l6-9l-6-6L63,1C65,0.4,67,0,69,0z"/>
						<path id="Wing_1_" class="st17" d="M131,0c4,19.3,2.3,46.7-5,82h16l14-36l-6-9l6-6L137,1C135,0.4,133,0,131,0z"/>
					</g>
					<path id="Collar" class="st18" d="M156,21.5c6.8,4.6,11,11.1,11,18.3c0,7.4-4.4,14.1-11.5,18.7l-5.9-4.7l-4.6,0.3l1-3.2
						l-0.1-0.1c6.1-3.1,10.1-8.3,10.1-14.1V21.5z M108,21.5c-6.8,4.6-11,11.1-11,18.3c0,7.4,4.4,14.1,11.5,18.7l5.9-4.7l4.6,0.3
						l-1-3.2l0.1-0.1C112,47.9,108,42.7,108,36.9V21.5z"/>
				</g>
				<g id="Face" transform="translate(76.000000, 82.000000)">
					<g id="Mouth_x2F_Twinkle" transform="translate(2.000000, 52.000000)">
						<path id="Mouth" class="st19" d="M40,16c0,5.4,6.2,9,14,9s14-3.6,14-9c0-1.1-0.9-2-2-2c-1.3,0-1.9,0.9-2,2
							c-1.2,2.9-4.3,4.7-10,5c-5.7-0.3-8.8-2.1-10-5c-0.1-1.1-0.7-2-2-2C40.9,14,40,14.9,40,16z"/>
					</g>
					<g id="Nose_x2F_Default" transform="translate(28.000000, 40.000000)">
						<path id="Nose" class="st20" d="M16,8c0,4.4,5.4,8,12,8l0,0c6.6,0,12-3.6,12-8"/>
					</g>
					<g id="Eyes_x2F_Default-_xD83D__xDE00_" transform="translate(0.000000, 8.000000)">
						<circle id="Eye" class="st21" cx="30" cy="22" r="6"/>
						<circle id="Eye_1_" class="st21" cx="82" cy="22" r="6"/>
					</g>
					<g id="Eyebrow_x2F_Natural_x2F_Flat-Natural">
						<path id="Fill-10" class="st21" d="M38.7,11.1c-5,0.4-9.9,0.1-14.9-0.1c-3.8-0.2-7.7-0.7-11.4,1c-0.7,0.3-4.5,2.3-4.4,3.3
							c0.1,0.9,3.9,2.2,4.6,2.4c3.7,1.3,7.2,0.9,11,0.7c4.6-0.3,9.2-0.1,13.9-0.2c3.1-0.1,7.9-0.6,9.5-4.4c0.5-1.1,0.1-3.4-0.4-4.7
							c-0.2-0.5-0.7-0.7-1.1-0.4C43.9,9.8,41.1,10.9,38.7,11.1"/>
						<path id="Fill-10_1_" class="st21" d="M73.3,11.1c5,0.4,9.9,0.1,14.9-0.1c3.8-0.2,7.7-0.7,11.4,1c0.7,0.3,4.5,2.3,4.4,3.3
							c-0.1,0.9-3.9,2.2-4.6,2.4c-3.7,1.3-7.2,0.9-11,0.7c-4.6-0.3-9.2-0.1-13.9-0.2c-3.1-0.1-7.9-0.6-9.5-4.4
							c-0.5-1.1-0.1-3.4,0.4-4.7c0.2-0.5,0.7-0.7,1.1-0.4C68.1,9.8,70.9,10.9,73.3,11.1"/>
					</g>
				</g>
				<g id="Top">
					<g id="Mask_1_">
					</g>
					<defs>
						<filter id="Adobe_OpacityMaskFilter_5_" filterUnits="userSpaceOnUse" x="0" y="0" width="280" height="316">
							<feColorMatrix  type="matrix" values="1 0 0 0 0  0 1 0 0 0  0 0 1 0 0  0 0 0 1 0"/>
						</filter>
					</defs>
					<mask maskUnits="userSpaceOnUse" x="0" y="0" width="280" height="316" id="react-mask-224_1_">
						<g class="st22">
							<rect id="react-path-225_1_" class="st2" width="264" height="280"/>
						</g>
					</mask>
					<g id="Top_x2F_Short-Hair_x2F_Dreads-01" class="st23">
						<g transform="translate(-1.000000, 0.000000)">
							<g id="Facial-Hair_x2F_Moustache-Magnum" transform="translate(49.000000, 72.000000)">
								<g id="Hey...">
									<path id="react-path-229_1_" class="st24" d="M84,74.8c-0.5,0.8-1.2,1.4-2,1.8c-8.9,4.8-18.1,0.6-23.1,0.9
										c-2.4,0.1-5.5,1.8-6.7,0c-1.2-1.9,2.9-12.5,12.5-14.2c7-1.3,16.8,0.1,19.3,3.5c2.5-3.3,12.3-4.7,19.3-3.5
										c9.7,1.8,13.7,12.3,12.5,14.2c-1.1,1.7-4.2,0.1-6.7,0c-5-0.3-14.2,3.9-23.1-0.9C85.2,76.2,84.5,75.6,84,74.8z"/>
								</g>
								<defs>
									<filter id="Adobe_OpacityMaskFilter_6_" filterUnits="userSpaceOnUse" x="-32" y="0" width="264" height="244">
										<feColorMatrix  type="matrix" values="1 0 0 0 0  0 1 0 0 0  0 0 1 0 0  0 0 0 1 0"/>
									</filter>
								</defs>
								<mask maskUnits="userSpaceOnUse" x="-32" y="0" width="264" height="244" id="react-mask-228_1_">
									<g class="st25">
										<path id="react-path-229_2_" class="st2" d="M84,74.8c-0.5,0.8-1.2,1.4-2,1.8c-8.9,4.8-18.1,0.6-23.1,0.9
											c-2.4,0.1-5.5,1.8-6.7,0c-1.2-1.9,2.9-12.5,12.5-14.2c7-1.3,16.8,0.1,19.3,3.5c2.5-3.3,12.3-4.7,19.3-3.5
											c9.7,1.8,13.7,12.3,12.5,14.2c-1.1,1.7-4.2,0.1-6.7,0c-5-0.3-14.2,3.9-23.1-0.9C85.2,76.2,84.5,75.6,84,74.8z"/>
									</g>
								</mask>
								<g id="Color_x2F_Hair_x2F_Brown" class="st26">
									<g id="Color_1_" transform="translate(-32.000000, 0.000000)">
										<rect class="st27" width="264" height="244"/>
									</g>
								</g>
							</g>
							<g id="Hair" transform="translate(1.000000, 0.000000)">
								<g id="Dreads-With-Cut">
									<path id="react-path-227_1_" class="st28" d="M185.8,73.9c1.8,1,3.1,10.9,3.2,14.7c0,2.3,0.1,11.3-2.4,10.5
										c-0.8-0.2-1.9-5-2.1-7.7s-1.7-12.2-4.1-16.5c-0.6-1-2.1-2.7-1.4-3.6c0.8-1,1.7-0.4,2.7,0C182.8,71.8,185.6,73.8,185.8,73.9
										z M186.6,71c-0.7,1-5.8-1.7-8-2.9c-17.8-9.9-21.3-13-49.4-12.6C101.1,55.9,81.9,69,80.8,70.4c-0.8,0.9-1.7,3.4-2.5,10.4
										c-0.8,7,0.2,19.5-2.6,19.5c-2.4,0-3-23.8-1.9-33.2c0.2-1.4,0.8-4,0.3-5.3c-0.4-1.1-2.3-1.1-2-3c0.3-2.2,2.5-1.1,3.5-2.1
										c1.8-2-1-2.4-1.4-4.1c-0.7-2.5,1.3-3.2,3.1-4c2-0.9,1.7-0.1,3.3-1.8c-2.1-1.6-2.9-3.7,0-4.8c1.2-0.5,4.5,0.2,5.4-0.6
										c0.3-0.2,0.4-1.3,0.5-1.5c1.6-2.2,1.2-3.8,1-6.3c-0.1-2-0.1-3.9,2.3-4.1c1.6-0.1,3,1.2,4.4,1.6c1.6,0.4,1,0.8,2.3-0.1
										c2.2-1.5,0.7-4.5,2.5-6.3c2.4-2.4,4,1.1,6,1.4c4.2,0.6,2.9-3.7,5.4-5.3c3-1.9,3.3,2.3,5.1,2.4c1.6,0.1,4.5-3,5.9-3.6
										c4.2-1.7,6.3,3.1,10.2,2.5c2.9-0.4,3.7-0.8,6.3,0.8c2.5,1.6,3.1,0.5,6,0.4c2,0,3.3,1.7,5,1.9c0.8,0.1,1.7-0.8,2.6-0.7
										c3.2,0.2,3.4,4.4,6,5.5c2.3,1.1,5.1-0.4,7.4-0.7c5.7-0.7,1.8,4.6,2,7.8c2.2,0.5,4.5-1.6,6.7-1.2c3.5,0.6,2.2,4.2,1.4,6.7
										c2.4,0,8.8-2.7,10.3,0.7c0.8,1.8-1.1,4.1-1,6c0,2.5,1.9,4.6,2.6,7C187.6,59.4,188.9,68.1,186.6,71z"/>
								</g>
								<defs>
									<filter id="Adobe_OpacityMaskFilter_7_" filterUnits="userSpaceOnUse" x="0" y="0" width="264" height="280">
										<feColorMatrix  type="matrix" values="1 0 0 0 0  0 1 0 0 0  0 0 1 0 0  0 0 0 1 0"/>
									</filter>
								</defs>
								<mask maskUnits="userSpaceOnUse" x="0" y="0" width="264" height="280" id="react-mask-223_1_">
									<g class="st29">
										<path id="react-path-227_2_" class="st2" d="M185.8,73.9c1.8,1,3.1,10.9,3.2,14.7c0,2.3,0.1,11.3-2.4,10.5
											c-0.8-0.2-1.9-5-2.1-7.7s-1.7-12.2-4.1-16.5c-0.6-1-2.1-2.7-1.4-3.6c0.8-1,1.7-0.4,2.7,0
											C182.8,71.8,185.6,73.8,185.8,73.9z M186.6,71c-0.7,1-5.8-1.7-8-2.9c-17.8-9.9-21.3-13-49.4-12.6
											C101.1,55.9,81.9,69,80.8,70.4c-0.8,0.9-1.7,3.4-2.5,10.4c-0.8,7,0.2,19.5-2.6,19.5c-2.4,0-3-23.8-1.9-33.2
											c0.2-1.4,0.8-4,0.3-5.3c-0.4-1.1-2.3-1.1-2-3c0.3-2.2,2.5-1.1,3.5-2.1c1.8-2-1-2.4-1.4-4.1c-0.7-2.5,1.3-3.2,3.1-4
											c2-0.9,1.7-0.1,3.3-1.8c-2.1-1.6-2.9-3.7,0-4.8c1.2-0.5,4.5,0.2,5.4-0.6c0.3-0.2,0.4-1.3,0.5-1.5c1.6-2.2,1.2-3.8,1-6.3
											c-0.1-2-0.1-3.9,2.3-4.1c1.6-0.1,3,1.2,4.4,1.6c1.6,0.4,1,0.8,2.3-0.1c2.2-1.5,0.7-4.5,2.5-6.3c2.4-2.4,4,1.1,6,1.4
											c4.2,0.6,2.9-3.7,5.4-5.3c3-1.9,3.3,2.3,5.1,2.4c1.6,0.1,4.5-3,5.9-3.6c4.2-1.7,6.3,3.1,10.2,2.5c2.9-0.4,3.7-0.8,6.3,0.8
											c2.5,1.6,3.1,0.5,6,0.4c2,0,3.3,1.7,5,1.9c0.8,0.1,1.7-0.8,2.6-0.7c3.2,0.2,3.4,4.4,6,5.5c2.3,1.1,5.1-0.4,7.4-0.7
											c5.7-0.7,1.8,4.6,2,7.8c2.2,0.5,4.5-1.6,6.7-1.2c3.5,0.6,2.2,4.2,1.4,6.7c2.4,0,8.8-2.7,10.3,0.7c0.8,1.8-1.1,4.1-1,6
											c0,2.5,1.9,4.6,2.6,7C187.6,59.4,188.9,68.1,186.6,71z"/>
									</g>
								</mask>
								<g id="Skin_x2F__xD83D__xDC76__xD83C__xDFFD_-03-Brown_1_" class="st30">
									<g id="Color_2_" transform="translate(0.000000, 0.000000) ">
										<rect class="st31" width="264" height="280"/>
									</g>
								</g>
							</g>
							<g id="Top_x2F__x5F_Resources_x2F_Kurt" transform="translate(62.000000, 85.000000)">
								<g id="Kurts" transform="translate(5.000000, 2.000000)">
									<path id="It_x21_" class="st32" d="M66,11.1C55,11.1,53.4,2,30.7,0.7C8-0.3,0.8,6.4,0.8,11.1c0,4.3-1.1,15.5,13.6,28.5
										c14.8,15.5,29.9,10.3,35.3,5.2c5.4-2.3,11.6-23.4,16.3-23.3s10.9,21,16.3,23.3c5.4,5.1,20.6,10.3,35.3-5.2
										c14.7-13.1,13.6-24.2,13.6-28.5c0-4.7-7.2-11.4-29.9-10.4C78.6,2,77,11.1,66,11.1z"/>
									<path id="Did" class="st33" d="M55.1,21.5C55.5,13.8,42.2,5.6,28,5.9c-14.3,0.3-16.1,9.5-16.3,13
										C11.3,27,20,45.3,36.1,44.8C52.2,44.3,54.9,26.5,55.1,21.5z"/>
									<path id="Courtney" class="st33" d="M76.9,21.5C76.5,13.8,89.8,5.6,104,5.9c14.3,0.3,16.1,9.5,16.3,13
										c0.3,8.1-8.4,26.4-24.5,25.9C79.8,44.3,77.1,26.5,76.9,21.5z"/>
								</g>
							</g>
						</g>
					</g>
				</g>
			</g>
		</g>
	</g>
</g>
</svg>
